<?xml version="1.0" encoding="utf-8"?>
<!-- Generator: Adobe Illustrator 21.0.0, SVG Export Plug-In . SVG Version: 6.00 Build 0)  -->
<svg version="1.1" id="color" xmlns="http://www.w3.org/2000/svg" xmlns:xlink="http://www.w3.org/1999/xlink" x="0px" y="0px"
	 viewBox="0 0 32 32" enable-background="new 0 0 32 32" xml:space="preserve">
<g>
	<path fill="#BF9760" d="M28.73,29.73c-4.054,0-7.349-0.864-9.802-2.57h-5.857c-2.454,1.706-5.749,2.57-9.801,2.57
		c-0.552,0-1-0.447-1-1c0-4.054,0.864-7.35,2.57-9.802v-5.857C3.134,10.619,2.27,7.323,2.27,3.27c0-0.553,0.448-1,1-1
		c4.053,0,7.348,0.864,9.801,2.57h5.857c2.453-1.706,5.748-2.57,9.802-2.57c0.553,0,1,0.447,1,1c0,4.054-0.864,7.349-2.57,9.802
		v5.857c1.706,2.453,2.57,5.748,2.57,9.802C29.73,29.283,29.283,29.73,28.73,29.73z"/>
</g>
<g>
	<path fill="#8D5836" d="M16,32c-0.276,0-0.54-0.114-0.729-0.315c-4.137-4.4-5.273-8.901-3.381-13.382v-4.605
		c-1.892-4.48-0.755-8.981,3.381-13.382c0.378-0.402,1.079-0.402,1.457,0c4.137,4.4,5.274,8.901,3.382,13.382v4.605
		c1.893,4.48,0.755,8.981-3.382,13.382C16.54,31.886,16.276,32,16,32z M12.89,18.51h0.01H12.89z"/>
</g>
<g>
	<path fill="#8D5836" d="M22.51,20.998c-1.402,0-2.806-0.296-4.207-0.888h-4.605c-4.481,1.892-8.981,0.755-13.382-3.382
		C0.114,16.54,0,16.276,0,16s0.114-0.54,0.315-0.729c4.401-4.138,8.899-5.274,13.382-3.382h4.605
		c4.48-1.892,8.981-0.755,13.382,3.382C31.886,15.46,32,15.724,32,16s-0.114,0.54-0.315,0.729
		C28.661,19.571,25.589,20.998,22.51,20.998z"/>
</g>
<g>
	<path fill="#BF9760" d="M16,21c-2.757,0-5-2.243-5-5s2.243-5,5-5s5,2.243,5,5S18.757,21,16,21z"/>
</g>
</svg>
