<?xml version="1.0" encoding="utf-8"?>
<!-- Generator: Adobe Illustrator 21.0.0, SVG Export Plug-In . SVG Version: 6.00 Build 0)  -->
<svg version="1.1" id="color" xmlns="http://www.w3.org/2000/svg" xmlns:xlink="http://www.w3.org/1999/xlink" x="0px" y="0px"
	 viewBox="0 0 32 32" enable-background="new 0 0 32 32" xml:space="preserve">
<path fill="#8BC02F" d="M31.971,17.583c-0.067-0.271-0.245-0.502-0.49-0.637c-1.923-1.055-3.674-1.631-5.287-1.846
	c1.471-3.899,0.902-8.982-1.666-14.521c-0.113-0.245-0.321-0.434-0.576-0.522c-0.255-0.091-0.535-0.071-0.776,0.048
	c-6.261,3.117-9.945,6.335-11.423,10.011c-1.696-1.487-3.88-2.195-6.576-2.111C4.686,8.02,4.277,8.387,4.213,8.873
	c-0.588,4.409,0.032,7.659,1.896,9.935c1.763,2.152,4.574,3.341,8.572,3.645c2.728,1.676,5.189,2.529,7.455,2.529
	c3.637,0,6.771-2.18,9.697-6.606C31.988,18.142,32.038,17.854,31.971,17.583z"/>
<path fill="#42A141" d="M22.818,19.017l-5.757,1.065c1.639-2.716,3.163-5.924,4.622-9.723c0.198-0.516-0.06-1.094-0.575-1.292
	c-0.516-0.197-1.095,0.06-1.292,0.575c-1.564,4.071-3.191,7.437-4.959,10.198l-4.119-4.514c-0.372-0.409-1.005-0.438-1.412-0.064
	c-0.408,0.372-0.438,1.004-0.064,1.412l4.433,4.858c-3.517,4.801-7.622,7.433-12.891,8.487c-0.541,0.108-0.893,0.635-0.784,1.177
	C0.114,31.672,0.532,32,0.999,32c0.064,0,0.131-0.006,0.197-0.02c5.942-1.189,10.5-4.15,14.362-9.587l7.623-1.41
	c0.543-0.101,0.902-0.622,0.802-1.165S23.361,18.912,22.818,19.017z"/>
</svg>
