<?xml version="1.0" encoding="utf-8"?>
<!-- Generator: Adobe Illustrator 21.0.0, SVG Export Plug-In . SVG Version: 6.00 Build 0)  -->
<svg version="1.1" id="color" xmlns="http://www.w3.org/2000/svg" xmlns:xlink="http://www.w3.org/1999/xlink" x="0px" y="0px"
	 viewBox="0 0 32 32" enable-background="new 0 0 32 32" xml:space="preserve">
<g>
	<path fill="#EBEBEB" d="M28.586,7.95c-0.256,0-0.512-0.098-0.707-0.293l-3.536-3.536c-0.188-0.188-0.293-0.442-0.293-0.707
		s0.105-0.52,0.293-0.707l2.122-2.121c0.779-0.78,2.049-0.78,2.828,0l2.121,2.121c0.78,0.78,0.78,2.049,0,2.829l-2.121,2.121
		C29.098,7.852,28.842,7.95,28.586,7.95z"/>
</g>
<g>
	<path fill="#EBEBEB" d="M24.8,13.98c0.39-0.39,0.39-1.02,0-1.42L19.43,7.2c-0.37-0.37-1.03-0.37-1.41,0l-3.9,3.9
		c-0.24,0.24-0.57,0.34-0.9,0.27l-1.44-0.28c-0.98-0.2-2,0.11-2.71,0.82L7.79,13.2l11.02,11.02l1.28-1.29
		c0.71-0.71,1.02-1.72,0.82-2.71l-0.29-1.44c-0.06-0.33,0.04-0.66,0.28-0.9L24.8,13.98z"/>
</g>
<circle fill="#EBEBEB" cx="1.5" cy="26.5" r="1.5"/>
<circle fill="#EBEBEB" cx="5.5" cy="30.5" r="1.5"/>
<circle fill="#EBEBEB" cx="2.5" cy="21.5" r="1.5"/>
<circle fill="#EBEBEB" cx="10.5" cy="29.5" r="1.5"/>
<circle fill="#EBEBEB" cx="7.5" cy="24.5" r="1.5"/>
<g>
	<path fill="#323232" d="M26.293,15.898c-0.512,0-1.024-0.195-1.414-0.585l-8.192-8.192c-0.378-0.377-0.586-0.879-0.586-1.414
		c0-0.534,0.208-1.036,0.586-1.414l2.121-2.121c1.56-1.559,4.096-1.56,5.657,0l5.363,5.364C30.584,8.291,31,9.295,31,10.364
		s-0.416,2.073-1.172,2.829l-2.121,2.121C27.317,15.704,26.805,15.898,26.293,15.898z"/>
</g>
<g>
	<path fill="#323232" d="M7.79,13.2l-2.2,2.19c-0.78,0.78-0.78,2.05,0,2.83l8.19,8.19c0.39,0.39,0.9,0.59,1.41,0.59
		s1.03-0.2,1.42-0.59l2.2-2.19L7.79,13.2z"/>
</g>
</svg>
