<?xml version="1.0" encoding="utf-8"?>
<!-- Generator: Adobe Illustrator 21.0.0, SVG Export Plug-In . SVG Version: 6.00 Build 0)  -->
<svg version="1.1" id="color" xmlns="http://www.w3.org/2000/svg" xmlns:xlink="http://www.w3.org/1999/xlink" x="0px" y="0px"
	 viewBox="0 0 32 32" enable-background="new 0 0 32 32" xml:space="preserve">
<g>
	<path fill="#E94B35" d="M1,32c-0.398,0-0.763-0.237-0.92-0.608c-0.168-0.394-0.066-0.85,0.251-1.135
		c5.717-5.146,7.124-9.184,8.613-13.459c1.034-2.969,2.104-6.038,4.681-9.414c0.152-0.208,0.339-0.42,0.527-0.62
		c0.34-0.36,0.891-0.417,1.297-0.136l12.29,8.51c0.401,0.278,0.543,0.804,0.336,1.246c-4.58,9.789-12.908,14.604-27.004,15.613
		C1.048,31.999,1.023,32,1,32z"/>
</g>
<path fill="#8BC02F" d="M30.9,0.005c-2.972,0.298-5.412,2.322-6.297,5.085c-3.388-1.909-7.727-1.293-10.46,1.684
	c-0.362,0.395-0.35,1.005,0.029,1.383c0.308,0.308,0.448,0.802,0.61,1.374c0.245,0.86,0.549,1.931,1.603,2.631
	c1.121,0.749,2.128,0.493,2.859,0.305c0.662-0.168,0.905-0.204,1.246,0.023c0.368,0.248,0.421,0.516,0.515,1.153
	c0.109,0.748,0.26,1.772,1.377,2.517c1.025,0.689,2.075,0.635,2.916,0.59c0.567-0.03,1.056-0.056,1.469,0.125
	c0.131,0.058,0.268,0.084,0.401,0.084c0.367,0,0.719-0.203,0.894-0.55c0.066-0.131,0.131-0.272,0.197-0.415
	c1.481-3.249,0.685-7.114-1.911-9.605c0.431-2.359,2.345-4.154,4.751-4.395c0.55-0.055,0.95-0.545,0.896-1.095
	C31.94,0.351,31.459-0.047,30.9,0.005z"/>
</svg>
