<?xml version="1.0" encoding="utf-8"?>
<!-- Generator: Adobe Illustrator 21.0.0, SVG Export Plug-In . SVG Version: 6.00 Build 0)  -->
<svg version="1.1" id="color" xmlns="http://www.w3.org/2000/svg" xmlns:xlink="http://www.w3.org/1999/xlink" x="0px" y="0px"
	 viewBox="0 0 32 32" enable-background="new 0 0 32 32" xml:space="preserve">
<path fill="#BF9760" d="M24,0c-2.137,0-4.146,0.832-5.657,2.343l-16,16c-0.006,0.006-0.008,0.015-0.014,0.022
	C0.891,19.812,0,21.804,0,24c0,0.553,0.448,1,1,1s1-0.447,1-1c0-3.309,2.691-6,6-6s6,2.691,6,6s-2.691,6-6,6
	c-1.378,0-2.5-1.121-2.5-2.5S6.622,25,8,25c0.552,0,1-0.447,1-1s-0.448-1-1-1c-2.481,0-4.5,2.019-4.5,4.5S5.519,32,8,32
	c2.196,0,4.188-0.89,5.635-2.328c0.007-0.006,0.016-0.008,0.022-0.015l16-16C31.168,12.145,32,10.136,32,8C32,3.589,28.411,0,24,0z"
	/>
<g>
	<path fill="#8D5836" d="M16.71,13.71l-5.33,5.33c-0.59-0.4-1.25-0.7-1.97-0.87l5.88-5.88c0.39-0.39,1.03-0.39,1.42,0
		C17.1,12.68,17.1,13.32,16.71,13.71z"/>
</g>
<g>
	<path fill="#8D5836" d="M31.41,5.01l-5.7,5.7C25.51,10.9,25.26,11,25,11s-0.51-0.1-0.71-0.29c-0.39-0.39-0.39-1.03,0-1.42l6.1-6.1
		C30.8,3.75,31.15,4.36,31.41,5.01z"/>
</g>
</svg>
