<?xml version="1.0" encoding="utf-8"?>
<!-- Generator: Adobe Illustrator 21.0.0, SVG Export Plug-In . SVG Version: 6.00 Build 0)  -->
<svg version="1.1" id="color" xmlns="http://www.w3.org/2000/svg" xmlns:xlink="http://www.w3.org/1999/xlink" x="0px" y="0px"
	 viewBox="0 0 32 32" enable-background="new 0 0 32 32" xml:space="preserve">
<g>
	<path fill="#BF9760" d="M3.651,32c-0.939,0-1.877-0.358-2.585-1.066c-1.352-1.351-1.428-3.539-0.173-4.98l8.376-9.633
		c0.182-0.209,0.442-0.333,0.72-0.343c0.268-0.028,0.545,0.096,0.742,0.292l5,5c0.196,0.196,0.302,0.465,0.292,0.742
		c-0.01,0.276-0.134,0.537-0.343,0.72l-9.633,8.376C5.361,31.704,4.505,32,3.651,32z"/>
</g>
<g>
	<path fill="#BF9760" d="M25.831,20.96c-0.258,0-0.514-0.1-0.708-0.293l-13.79-13.79c-0.341-0.341-0.39-0.875-0.118-1.272
		C13.694,1.99,17.169,0,21,0c6.065,0,11,4.935,11,11c0,3.832-1.99,7.307-5.604,9.785C26.224,20.902,26.027,20.96,25.831,20.96z"/>
</g>
<g>
	<path fill="#8D5836" d="M22.9,25C14.133,25,7,17.867,7,9.1c0-1.911,1.018-3.71,2.657-4.693c0.825-0.495,1.833-0.54,2.7-0.118
		c0.865,0.421,1.453,1.242,1.572,2.197l0.323,2.586c0.029,0.232,0.15,0.437,0.341,0.574c0.19,0.137,0.421,0.187,0.652,0.142
		l3.19-0.639c1.236-0.245,2.501,0.137,3.39,1.027c0.889,0.889,1.272,2.155,1.026,3.389l-0.638,3.19
		c-0.046,0.23,0.004,0.462,0.142,0.652s0.341,0.311,0.573,0.34l2.586,0.323c0.955,0.12,1.776,0.708,2.198,1.573
		c0.421,0.864,0.377,1.874-0.118,2.699l0,0C26.611,23.981,24.812,25,22.9,25z M26.737,21.828h0.01H26.737z"/>
</g>
</svg>
