<?xml version="1.0" encoding="utf-8"?>
<!-- Generator: Adobe Illustrator 21.0.0, SVG Export Plug-In . SVG Version: 6.00 Build 0)  -->
<svg version="1.1" id="color" xmlns="http://www.w3.org/2000/svg" xmlns:xlink="http://www.w3.org/1999/xlink" x="0px" y="0px"
	 viewBox="0 0 32 32" enable-background="new 0 0 32 32" xml:space="preserve">
<g>
	<path fill="#EBEBEB" d="M25,30H7c-1.657,0-3-1.343-3-3V14h24v13C28,28.657,26.657,30,25,30z"/>
</g>
<g>
	<path fill="#F2C500" d="M19.402,24.942C17.978,24.665,17,23.332,17,21.882L17,20c0-0.551-0.449-1-1-1c-0.559,0-1.013,0.461-1,1.023
		c0.02,0.878-0.23,1.764-0.945,2.273C11.629,24.022,9,22.312,9,20v-6h14v8C23,23.85,21.317,25.314,19.402,24.942z"/>
</g>
<g>
	<path fill="#F2C500" d="M13,11c-0.552,0-1-0.448-1-1V9c0-1.654,1.346-3,3-3h9c0.551,0,1-0.449,1-1s-0.449-1-1-1H7
		C6.448,4,6,3.552,6,3s0.448-1,1-1h17c1.654,0,3,1.346,3,3s-1.346,3-3,3h-9c-0.551,0-1,0.449-1,1v1C14,10.552,13.552,11,13,11z"/>
</g>
<g>
	<path fill="#323232" d="M31,19c-0.552,0-1-0.448-1-1v-2c0-0.551-0.449-1-1-1H3c-0.551,0-1,0.449-1,1v2c0,0.552-0.448,1-1,1
		s-1-0.448-1-1v-2c0-1.654,1.346-3,3-3h26c1.654,0,3,1.346,3,3v2C32,18.552,31.552,19,31,19z"/>
</g>
</svg>
