<?xml version="1.0" encoding="utf-8"?>
<!-- Generator: Adobe Illustrator 21.0.0, SVG Export Plug-In . SVG Version: 6.00 Build 0)  -->
<svg version="1.1" id="color" xmlns="http://www.w3.org/2000/svg" xmlns:xlink="http://www.w3.org/1999/xlink" x="0px" y="0px"
	 viewBox="0 0 32 32" enable-background="new 0 0 32 32" xml:space="preserve">
<g>
	<path fill="#8BC02F" d="M18.45,30.001c-0.424,0-0.823-0.075-1.203-0.251c-1.103-0.511-1.701-1.696-2.417-3.706
		c-0.434-1.214-0.764-2.213-1.039-3.043c-1.179-3.565-1.179-3.565-4.953-4.835c-0.8-0.269-1.75-0.588-2.886-0.994
		c-2.009-0.716-3.195-1.313-3.706-2.416c-0.554-1.197-0.106-2.596,0.537-4.3c0.025-0.108-0.076-0.5-0.136-0.733
		C2.542,9.312,2.422,8.847,2.44,8.353c0.01-0.226,0.012-0.458,0.014-0.695c0.009-1.161,0.02-2.478,0.834-3.28
		c0.827-0.802,2.155-0.805,3.327-0.809c0.231,0,0.457-0.001,0.67-0.008c0.475-0.025,0.936,0.089,1.34,0.182
		c0.258,0.06,0.693,0.162,0.814,0.117c3.889-1.442,4.994-1.187,6.381,2.176c0.249-0.854,0.483-1.643,0.739-2.426
		c0.419-1.289,1.014-2.677,2.241-3.183c1.209-0.503,2.594,0.054,3.785,0.663c0.344,0.175,0.963,0.204,1.174,0.103
		c1.669-0.848,4.47-2.27,6.817,0.146c0.007,0.007,0.015,0.014,0.022,0.021c2.507,2.358,1.066,5.196,0.206,6.892
		c-0.101,0.204-0.069,0.813,0.109,1.164c0.608,1.188,1.163,2.57,0.662,3.783c-0.506,1.227-1.894,1.821-3.184,2.241
		c-0.782,0.255-1.57,0.49-2.425,0.739c3.362,1.383,3.622,2.486,2.173,6.388c-0.041,0.114,0.06,0.548,0.119,0.807
		c0.094,0.404,0.199,0.862,0.182,1.342c-0.007,0.211-0.008,0.438-0.008,0.67c-0.003,1.171-0.006,2.499-0.803,3.319
		c-0.807,0.819-2.123,0.83-3.283,0.84c-0.238,0.002-0.472,0.004-0.69,0.014c-0.495,0.015-0.966-0.102-1.376-0.207
		c-0.233-0.061-0.616-0.165-0.746-0.133C20.379,29.654,19.36,30.001,18.45,30.001z"/>
</g>
<g>
	<path fill="#42A141" d="M1,32c-0.256,0-0.512-0.098-0.707-0.293c-0.391-0.391-0.391-1.023,0-1.414l16-16
		c0.391-0.391,1.023-0.391,1.414,0s0.391,1.023,0,1.414l-16,16C1.512,31.902,1.256,32,1,32z"/>
</g>
</svg>
