<?xml version="1.0" encoding="utf-8"?>
<!-- Generator: Adobe Illustrator 21.0.0, SVG Export Plug-In . SVG Version: 6.00 Build 0)  -->
<svg version="1.1" id="color" xmlns="http://www.w3.org/2000/svg" xmlns:xlink="http://www.w3.org/1999/xlink" x="0px" y="0px"
	 viewBox="0 0 32 32" enable-background="new 0 0 32 32" xml:space="preserve">
<g>
	<path fill="#8BC02F" d="M12.751,16c-0.002,0-0.005,0-0.007,0c-4.188-0.03-7.413-1.225-9.583-3.553
		C0.78,9.892-0.264,6.026,0.057,0.955C0.089,0.444,0.502,0.04,1.014,0.019c4.478-0.188,8.019,1.021,10.246,3.492
		c2.389,2.65,3.224,6.564,2.481,11.634C13.668,15.636,13.247,16,12.751,16z"/>
</g>
<g>
	<path fill="#8BC02F" d="M21.912,14.998c-0.638,0-1.304-0.03-1.999-0.091c-0.266-0.023-0.512-0.152-0.683-0.358
		c-0.17-0.206-0.251-0.472-0.225-0.737c0.364-3.649,1.591-6.323,3.646-7.945c2.042-1.612,4.896-2.185,8.482-1.696
		c0.491,0.066,0.859,0.482,0.866,0.978c0.043,3.301-0.844,5.819-2.638,7.484C27.666,14.205,25.165,14.998,21.912,14.998z"/>
</g>
<g>
	<path fill="#42A141" d="M15,32c-0.009,0-0.017,0-0.026,0c-0.552-0.014-0.988-0.473-0.974-1.025c0-0.007,0-0.015,0-0.021
		c0.32-12.607-2.391-20.267-8.531-24.105c-0.468-0.293-0.61-0.91-0.318-1.378c0.293-0.468,0.909-0.61,1.378-0.318
		c4.945,3.092,7.886,8.28,8.992,16.028c1.692-5.407,4.745-9.551,8.97-12.042c0.477-0.281,1.089-0.122,1.369,0.354
		c0.281,0.476,0.122,1.089-0.354,1.369c-7.548,4.45-9.337,13.421-9.508,20.164c0,0,0,0,0,0C15.986,31.569,15.541,32,15,32z"/>
</g>
</svg>
