<?xml version="1.0" encoding="utf-8"?>
<!-- Generator: Adobe Illustrator 21.0.0, SVG Export Plug-In . SVG Version: 6.00 Build 0)  -->
<svg version="1.1" id="color" xmlns="http://www.w3.org/2000/svg" xmlns:xlink="http://www.w3.org/1999/xlink" x="0px" y="0px"
	 viewBox="0 0 32 32" enable-background="new 0 0 32 32" xml:space="preserve">
<path fill="#8BC02F" d="M29.748,25.336l-3.314-3.729l2.207-1.839c0.424-0.354,0.481-0.984,0.128-1.408
	c-0.354-0.427-0.984-0.482-1.408-0.129l-2.818,2.348c-0.873,0.728-1.9,1.231-2.985,1.49l-0.572-3.243
	c-0.097-0.544-0.615-0.911-1.159-0.811c-0.544,0.096-0.907,0.614-0.811,1.158l0.543,3.078c-0.456-0.019-0.912-0.069-1.362-0.175
	l-3.979-0.936c0.076-2.387,0.369-4.688,0.873-6.913l3.575,1.1c0.556,0.171,1.129,0.255,1.7,0.255c1.04,0,2.072-0.279,2.98-0.824
	l3.169-1.901c0.474-0.284,0.627-0.898,0.343-1.372s-0.898-0.627-1.372-0.343l-3.169,1.901c-0.235,0.141-0.484,0.253-0.74,0.34
	l-0.602-2.608c-0.125-0.539-0.667-0.875-1.2-0.75c-0.538,0.124-0.874,0.661-0.75,1.199l0.519,2.248
	c-0.097-0.022-0.195-0.028-0.291-0.057l-3.664-1.127c0.712-2.462,1.696-4.829,2.96-7.108l1.346,0.506
	c0.782,0.26,1.583,0.387,2.376,0.387c1.942,0,3.832-0.762,5.26-2.19l1.176-1.176c0.391-0.391,0.391-1.023,0-1.414
	s-1.023-0.391-1.414,0l-1.176,1.176c-1.473,1.472-3.616,1.978-5.554,1.333L19.58,3.432c0.392-0.623,0.799-1.242,1.234-1.852
	c0.32-0.449,0.216-1.074-0.234-1.395c-0.452-0.32-1.074-0.217-1.395,0.234c-1.662,2.331-3.018,4.783-4.087,7.342l-1.645-0.658
	L12.99,3.858c-0.078-0.547-0.583-0.926-1.131-0.849c-0.546,0.078-0.926,0.585-0.848,1.132l0.301,2.105L8.372,5.071
	c-0.516-0.206-1.095,0.044-1.3,0.558c-0.205,0.513,0.044,1.095,0.557,1.3l6.751,2.7c-0.839,2.367-1.437,4.824-1.787,7.367
	l-4.469-1.008l1.771-3.542c0.247-0.494,0.047-1.095-0.447-1.342c-0.495-0.245-1.095-0.046-1.342,0.447l-1.852,3.704
	c-0.993-0.658-1.72-1.687-1.96-2.888L3.98,10.804c-0.108-0.542-0.635-0.896-1.177-0.784c-0.542,0.108-0.893,0.635-0.784,1.177
	l0.313,1.565c0.493,2.464,2.386,4.449,4.823,5.058l5.102,1.15c0.038,0.01,0.076,0.009,0.113,0.014
	c-0.17,1.973-0.199,3.996-0.084,6.066l-0.428-0.57c-2.089-2.785-5.646-4.143-9.056-3.46c-0.542,0.108-0.893,0.635-0.784,1.177
	s0.632,0.896,1.177,0.784c1.155-0.231,2.326-0.147,3.421,0.183l-3.303,3.108c-0.402,0.379-0.421,1.012-0.042,1.414
	C3.469,27.895,3.734,28,4,28c0.246,0,0.492-0.09,0.686-0.271l3.873-3.646c0.641,0.433,1.224,0.96,1.701,1.596l2.19,2.921
	c0.051,0.069,0.125,0.105,0.189,0.157c0.107,0.801,0.229,1.608,0.377,2.423C13.104,31.661,13.525,32,13.999,32
	c0.059,0,0.119-0.005,0.18-0.016c0.543-0.099,0.904-0.619,0.805-1.163c-0.478-2.636-0.732-5.174-0.778-7.628l3.533,0.831
	c0.697,0.164,1.406,0.244,2.113,0.244c1.757,0,3.492-0.506,4.985-1.447l3.416,3.843C28.45,26.887,28.725,27,29,27
	c0.236,0,0.473-0.083,0.664-0.253C30.077,26.381,30.114,25.748,29.748,25.336z"/>
</svg>
