<?xml version="1.0" encoding="utf-8"?>
<!-- Generator: Adobe Illustrator 21.0.0, SVG Export Plug-In . SVG Version: 6.00 Build 0)  -->
<svg version="1.1" id="color" xmlns="http://www.w3.org/2000/svg" xmlns:xlink="http://www.w3.org/1999/xlink" x="0px" y="0px"
	 viewBox="0 0 32 32" enable-background="new 0 0 32 32" xml:space="preserve">
<g>
	<path fill="#F2C500" d="M16,30C5.255,30,3,24.019,3,19c0-4.842,1.889-8.29,5.613-10.247c1.817-0.954,3.033-2.574,3.336-4.443
		l0.163-1.002C12.423,1.391,14.058,0,16,0c1.942,0,3.577,1.391,3.888,3.308l0.163,1.001c0.304,1.87,1.52,3.489,3.336,4.443
		C27.111,10.71,29,14.158,29,19C29,24.019,26.744,30,16,30z"/>
</g>
<path fill="#EBEBEB" d="M23,21c0-0.553-0.447-1-1-1s-1,0.447-1,1c0,2.788-1.571,5.286-4,6.521V23c0-0.553-0.448-1-1-1s-1,0.447-1,1
	v4.521c-2.428-1.235-4-3.733-4-6.521c0-0.553-0.448-1-1-1s-1,0.447-1,1c0,3.598,2.055,6.817,5.219,8.367l-0.926,0.926
	c-0.391,0.391-0.391,1.023,0,1.414s1.023,0.391,1.414,0L16,30.414l1.293,1.293C17.488,31.902,17.744,32,18,32
	s0.512-0.098,0.707-0.293c0.391-0.391,0.391-1.023,0-1.414l-0.927-0.927C20.944,27.818,23,24.598,23,21z"/>
</svg>
