<?xml version="1.0" encoding="utf-8"?>
<!-- Generator: Adobe Illustrator 21.0.0, SVG Export Plug-In . SVG Version: 6.00 Build 0)  -->
<svg version="1.1" id="color" xmlns="http://www.w3.org/2000/svg" xmlns:xlink="http://www.w3.org/1999/xlink" x="0px" y="0px"
	 viewBox="0 0 32 32" enable-background="new 0 0 32 32" xml:space="preserve">
<g>
	<path fill="#F2C500" d="M30.76,2.35c-2.12-2.68-5.7-3.1-8.92-1.06l-0.3,0.19c-0.69,0.44-1.41,0.89-2.04,1.47
		c-0.8,0.74-1.3,0.78-3.02,0.23c-0.84-0.27-2.62-0.6-4.48-0.87c-0.67-0.09-1.35-0.18-2-0.26C8.44,1.87,7.04,1.76,6.37,1.8
		C3.33,1.99,1.34,5.06,1.46,7.69c0.13,2.78,2.48,5.17,5.49,5.56c0.23,0.03,0.33,0.18,0.36,0.27c0.04,0.09,0.09,0.27-0.05,0.45
		l-0.21,0.25c-0.57,0.74-1.15,1.47-1.73,2.2c-0.66,0.82-1.32,1.66-1.98,2.5c-0.41,0.54-0.83,1.07-1.22,1.62
		c-0.29,0.38-0.57,0.76-0.84,1.14c-1.07,1.52-1.49,3.21-1.18,4.78c0.3,1.49,1.24,2.8,2.65,3.68c2.95,1.85,6.47,1.1,8.72-1.81
		l0.43-0.49c0.26-0.3,0.67-0.45,1.1-0.4c0.39,0.04,0.71,0.24,0.87,0.54c1.74,3.19,3.69,4.02,5.25,4.02c0.33,0,0.64-0.04,0.93-0.1
		c1.26-0.26,2.3-0.81,3.08-1.61c0.78-0.8,1.31-1.85,1.53-3.11c0.17-0.97-0.08-2.21-0.76-3.7c-0.25-0.57-0.57-1.19-0.96-1.84
		c-0.58-0.98-1.3-2.04-2.16-3.19c-0.32-0.42-0.23-0.98,0.21-1.33l2.65-2.07l1.59-1.23l3.91-3.05c1.64-1.24,2.61-2.77,2.82-4.4
		C32.14,4.96,31.72,3.57,30.76,2.35z"/>
</g>
<g>
	<path fill="#F59D00" d="M9,22c0,0.55-0.45,1-1,1c-2.2,0-4.27-0.86-5.83-2.41l-0.05-0.05c0.39-0.55,0.81-1.08,1.22-1.62l0.25,0.25
		C4.76,20.35,6.33,21,8,21C8.55,21,9,21.45,9,22z"/>
</g>
<g>
	<path fill="#F59D00" d="M25.23,13.82l-1.59,1.23l-0.88-0.88C21.62,13.04,21,11.53,21,9.93V9c0-0.55,0.45-1,1-1s1,0.45,1,1v0.93
		c0,1.07,0.42,2.07,1.17,2.83L25.23,13.82z"/>
</g>
<g>
	<path fill="#F59D00" d="M14.95,8.32C14.81,8.74,14.42,9,14,9c-0.1,0-0.21-0.02-0.32-0.05C11.48,8.21,10,6.16,10,3.84V2.05
		c0.65,0.08,1.33,0.17,2,0.26v1.53c0,1.46,0.93,2.75,2.32,3.21C14.84,7.23,15.12,7.79,14.95,8.32z"/>
</g>
<g>
	<path fill="#F59D00" d="M23.9,23.48c-0.99,0.83-2.23,1.25-3.47,1.25c-1.03,0-2.08-0.29-2.98-0.9c-0.46-0.3-0.59-0.93-0.28-1.38
		c0.3-0.46,0.93-0.59,1.38-0.28c1.35,0.89,3.15,0.71,4.29-0.43l0.1-0.1C23.33,22.29,23.65,22.91,23.9,23.48z"/>
</g>
</svg>
