<?xml version="1.0" encoding="utf-8"?>
<!-- Generator: Adobe Illustrator 21.0.0, SVG Export Plug-In . SVG Version: 6.00 Build 0)  -->
<svg version="1.1" id="color" xmlns="http://www.w3.org/2000/svg" xmlns:xlink="http://www.w3.org/1999/xlink" x="0px" y="0px"
	 viewBox="0 0 32 32" enable-background="new 0 0 32 32" xml:space="preserve">
<path fill="#8BC02F" d="M25,4c-3.378,0-6.412,1.839-8,4.803V1c0-0.553-0.447-1-1-1s-1,0.447-1,1v7.803C13.412,5.839,10.378,4,7,4
	C6.447,4,6,4.447,6,5s0.447,1,1,1c2.702,0,5.133,1.502,6.342,3.919l1.764,3.528c0.151,0.303,0.506,0.55,0.891,0.552
	c0.001,0,0.002,0.001,0.003,0.001c0,0,0,0,0.001,0l0,0l0,0c0,0,0,0,0,0c0.001,0,0.002-0.001,0.003-0.001
	c0.341-0.002,0.723-0.216,0.891-0.552l1.764-3.528C19.867,7.502,22.298,6,25,6c0.553,0,1-0.447,1-1S25.553,4,25,4z"/>
<g>
	<path fill="#F2C500" d="M16,32c-7.438,0-9-4.04-9-7.429c0-3.263,1.323-5.588,3.934-6.91c1.112-0.563,1.854-1.51,2.038-2.597
		l0.108-0.645C13.315,13.018,14.543,12,16,12s2.685,1.018,2.92,2.421l0.108,0.644c0.184,1.087,0.926,2.034,2.038,2.598
		C23.677,18.983,25,21.309,25,24.571C25,27.96,23.438,32,16,32z"/>
</g>
</svg>
