<?xml version="1.0" encoding="utf-8"?>
<!-- Generator: Adobe Illustrator 21.0.0, SVG Export Plug-In . SVG Version: 6.00 Build 0)  -->
<svg version="1.1" id="color" xmlns="http://www.w3.org/2000/svg" xmlns:xlink="http://www.w3.org/1999/xlink" x="0px" y="0px"
	 viewBox="0 0 32 32" enable-background="new 0 0 32 32" xml:space="preserve">
<g>
	<path fill="#8BC02F" d="M16,18c-0.221,0-0.442-0.073-0.625-0.219C11.809,14.927,10,11.973,10,9s1.809-5.927,5.375-8.781
		c0.365-0.292,0.884-0.292,1.249,0C20.191,3.073,22,6.027,22,9s-1.809,5.927-5.375,8.781C16.442,17.927,16.221,18,16,18z"/>
</g>
<g>
	<path fill="#8BC02F" d="M17.592,30.999c-0.515,0-1.05-0.023-1.606-0.068c-0.488-0.04-0.876-0.427-0.916-0.916
		c-0.314-3.87,0.467-6.771,2.321-8.625c1.854-1.854,4.751-2.637,8.625-2.321c0.488,0.04,0.876,0.427,0.916,0.916
		c0.314,3.87-0.467,6.771-2.321,8.625C23.023,30.198,20.666,30.999,17.592,30.999z"/>
</g>
<g>
	<path fill="#8BC02F" d="M14.408,27.999c-3.075,0-5.431-0.801-7.02-2.389c-1.854-1.854-2.635-4.756-2.321-8.625
		c0.04-0.488,0.427-0.876,0.916-0.916c3.872-0.313,6.771,0.467,8.625,2.321c1.854,1.854,2.635,4.756,2.321,8.625
		c-0.04,0.488-0.427,0.876-0.916,0.916C15.459,27.976,14.924,27.999,14.408,27.999z M15.933,26.935h0.01H15.933z"/>
</g>
<path fill="#42A141" d="M20.707,25.293c-0.391-0.391-1.023-0.391-1.414,0L17,27.586V10c0-0.552-0.448-1-1-1s-1,0.448-1,1v14.586
	l-2.293-2.293c-0.391-0.391-1.023-0.391-1.414,0s-0.391,1.023,0,1.414L15,27.414V31c0,0.552,0.448,1,1,1s1-0.448,1-1v-0.586
	l3.707-3.707C21.098,26.316,21.098,25.684,20.707,25.293z"/>
</svg>
