<?xml version="1.0" encoding="utf-8"?>
<!-- Generator: Adobe Illustrator 21.0.0, SVG Export Plug-In . SVG Version: 6.00 Build 0)  -->
<svg version="1.1" id="color" xmlns="http://www.w3.org/2000/svg" xmlns:xlink="http://www.w3.org/1999/xlink" x="0px" y="0px"
	 viewBox="0 0 32 32" enable-background="new 0 0 32 32" xml:space="preserve">
<g>
	<path fill="#8BC02F" d="M14.961,32c-3.952,0-7.726-1.551-10.568-4.393C1.111,24.325-0.449,19.8,0.113,15.192l0.334-2.741
		c0.042-0.345,0.26-0.643,0.575-0.788c0.315-0.145,0.683-0.116,0.972,0.077l1.049,0.699C2.638,8.193,4.437,5.15,8.499,3.178
		C8.99,2.94,9.584,3.141,9.83,3.631l1.141,2.283c1.9-2.962,4.838-4.913,8.759-5.808c0.503-0.115,1.014,0.174,1.174,0.666
		l0.432,1.329c1.982-1.687,5.163-2.349,9.659-2.017c0.494,0.036,0.887,0.429,0.923,0.923c0.333,4.5-0.332,7.688-2.026,9.669
		l1.345,0.448c0.481,0.16,0.766,0.655,0.663,1.152c-0.851,4.106-2.766,7.059-5.703,8.808l2.173,1.087
		c0.49,0.245,0.691,0.838,0.453,1.331c-1.985,4.089-5.03,5.866-9.251,5.394l0.706,1.137c0.18,0.29,0.2,0.651,0.052,0.959
		c-0.147,0.309-0.442,0.52-0.781,0.561l-2.741,0.334C16.19,31.963,15.573,32,14.961,32z"/>
</g>
<path fill="#42A141" d="M23,16c0,0.55-0.45,1-1,1h-5.59l-4,4H18c0.55,0,1,0.45,1,1s-0.45,1-1,1h-7.59l-5.28,5.29
	c-0.26-0.21-0.5-0.44-0.74-0.68s-0.46-0.48-0.68-0.73L9,21.59V14c0-0.55,0.45-1,1-1s1,0.45,1,1v5.59l4-4V10c0-0.55,0.45-1,1-1
	s1,0.45,1,1v3.59l4.29-4.3c0.39-0.39,1.03-0.39,1.42,0c0.39,0.39,0.39,1.03,0,1.42L18.41,15H22C22.55,15,23,15.45,23,16z"/>
</svg>
