<?xml version="1.0" encoding="utf-8"?>
<!-- Generator: Adobe Illustrator 21.0.0, SVG Export Plug-In . SVG Version: 6.00 Build 0)  -->
<svg version="1.1" id="color" xmlns="http://www.w3.org/2000/svg" xmlns:xlink="http://www.w3.org/1999/xlink" x="0px" y="0px"
	 viewBox="0 0 32 32" enable-background="new 0 0 32 32" xml:space="preserve">
<g>
	<path fill="#E94B35" d="M3,30c-0.399,0-0.763-0.238-0.92-0.609c-0.167-0.394-0.065-0.85,0.252-1.135
		c5.25-4.713,6.542-8.386,7.91-12.274c0.968-2.751,1.969-5.596,4.388-8.822c0.281-0.364,0.565-0.68,0.876-0.98
		c0.337-0.323,0.851-0.372,1.242-0.116l11.37,7.45c0.386,0.253,0.549,0.737,0.395,1.171c-0.056,0.157-0.123,0.313-0.189,0.471
		c-4.26,9.339-12.044,13.908-25.252,14.841C3.047,29.999,3.023,30,3,30z"/>
</g>
<path fill="#8BC02F" d="M29,2h-0.236c-1.884,0-3.508,1.188-4.173,2.864c-2.941-1.484-6.586-1.034-9.076,1.308
	c-0.328,0.309-0.41,0.799-0.199,1.197c0.13,0.245,0.237,0.597,0.35,0.969c0.283,0.933,0.636,2.094,1.719,2.825
	c1.122,0.747,2.126,0.492,2.86,0.305c0.661-0.168,0.904-0.204,1.246,0.023c0.368,0.248,0.421,0.516,0.514,1.153
	c0.109,0.748,0.259,1.772,1.378,2.518c0.573,0.383,1.171,0.501,1.737,0.501c0.518,0,1.008-0.099,1.424-0.183
	c0.369-0.075,0.719-0.144,0.971-0.131c0.435,0.028,0.835-0.236,0.99-0.645c1.146-3.024,0.255-6.458-2.192-8.654
	C26.531,4.882,27.552,4,28.764,4H29c0.552,0,1-0.448,1-1S29.552,2,29,2z"/>
<g>
	<path fill="#323232" d="M31,32c-0.256,0-0.512-0.098-0.707-0.293l-30-30c-0.391-0.391-0.391-1.023,0-1.414s1.023-0.391,1.414,0
		l30,30c0.391,0.391,0.391,1.023,0,1.414C31.512,31.902,31.256,32,31,32z"/>
</g>
</svg>
