<?xml version="1.0" encoding="utf-8"?>
<!-- Generator: Adobe Illustrator 21.0.0, SVG Export Plug-In . SVG Version: 6.00 Build 0)  -->
<svg version="1.1" id="color" xmlns="http://www.w3.org/2000/svg" xmlns:xlink="http://www.w3.org/1999/xlink" x="0px" y="0px"
	 viewBox="0 0 32 32" enable-background="new 0 0 32 32" xml:space="preserve">
<g>
	<path fill="#9C56B8" d="M16,32C8.005,32,1.5,25.944,1.5,18.5c0-5.222,3.287-10.026,8.375-12.238
		c0.894-0.39,1.541-1.264,1.687-2.282l0.202-1.407C11.974,1.107,13.25,0,14.733,0h2.533c1.483,0,2.76,1.107,2.97,2.575l0.202,1.406
		c0.146,1.018,0.793,1.892,1.688,2.282C27.213,8.474,30.5,13.278,30.5,18.5C30.5,25.944,23.995,32,16,32z"/>
</g>
<g>
	<path fill="#EBEBEB" d="M16,32c-5.494,0-9-7.403-9-12.5c0-4.247,3.136-6.832,5.901-9.112c0.869-0.717,1.69-1.394,2.392-2.095
		c0.375-0.375,1.039-0.375,1.414,0c0.701,0.701,1.522,1.378,2.392,2.095C21.864,12.668,25,15.253,25,19.5C25,24.597,21.494,32,16,32
		z"/>
</g>
<g>
	<path fill="#9C56B8" d="M16,32c-3.576,0-4-11.152-4-11.265c0-2.677,1.485-3.926,3.059-5.25l0.295-0.249
		c0.373-0.315,0.92-0.315,1.293,0l0.295,0.249C18.515,16.809,20,18.059,20,20.735C20,20.848,19.576,32,16,32z M16.096,30.02h0.01
		H16.096z"/>
</g>
</svg>
