<?xml version="1.0" encoding="utf-8"?>
<!-- Generator: Adobe Illustrator 21.0.0, SVG Export Plug-In . SVG Version: 6.00 Build 0)  -->
<svg version="1.1" id="color" xmlns="http://www.w3.org/2000/svg" xmlns:xlink="http://www.w3.org/1999/xlink" x="0px" y="0px"
	 viewBox="0 0 32 32" enable-background="new 0 0 32 32" xml:space="preserve">
<g>
	<path fill="#9C56B8" d="M23.5,30h-6.293c-3.586,0-6.955-1.754-9.012-4.692l-2.892-4.132C4.787,20.439,3.942,20,3.043,20
		C1.365,20,0,18.635,0,16.956v-1.912C0,13.365,1.365,12,3.043,12c0.899,0,1.744-0.439,2.26-1.176l2.892-4.132
		C10.251,3.754,13.62,2,17.207,2H23.5c0.552,0,1,0.447,1,1v26C24.5,29.553,24.052,30,23.5,30z"/>
</g>
<g>
	<path fill="#EBEBEB" d="M23.5,30c-4.767,0-8.5-6.149-8.5-14s3.733-14,8.5-14S32,8.149,32,16S28.267,30,23.5,30z"/>
</g>
<g>
	<path fill="#9C56B8" d="M23.5,25c-2.763,0-3.5-5.657-3.5-9s0.737-9,3.5-9s3.5,5.657,3.5,9S26.263,25,23.5,25z M23.559,23.01h0.01
		H23.559z"/>
</g>
</svg>
