<?xml version="1.0" encoding="utf-8"?>
<!-- Generator: Adobe Illustrator 21.0.0, SVG Export Plug-In . SVG Version: 6.00 Build 0)  -->
<svg version="1.1" id="color" xmlns="http://www.w3.org/2000/svg" xmlns:xlink="http://www.w3.org/1999/xlink" x="0px" y="0px"
	 viewBox="0 0 32 32" enable-background="new 0 0 32 32" xml:space="preserve">
<g>
	<path fill="#EBEBEB" d="M23.66,22.57l-1.21-0.81c-0.28-0.18-0.45-0.5-0.45-0.83V12c0-0.55-0.45-1-1-1H11c-0.55,0-1,0.45-1,1v8.93
		c0,0.33-0.17,0.65-0.45,0.83l-1.21,0.81C7.5,23.13,7,24.06,7,25.07V27h18v-1.93C25,24.06,24.5,23.13,23.66,22.57z"/>
</g>
<g>
	<path fill="#EBEBEB" d="M19,6h-6c-0.553,0-1-0.448-1-1V2c0-1.103,0.897-2,2-2h4c1.103,0,2,0.897,2,2v3C20,5.552,19.553,6,19,6z"/>
</g>
<g>
	<path fill="#323232" d="M7,27v3c0,1.1,0.9,2,2,2h14c1.1,0,2-0.9,2-2v-3H7z"/>
</g>
<g>
	<path fill="#323232" d="M23,13H9c-1.103,0-2-0.897-2-2V8c0-2.206,1.794-4,4-4h10c2.206,0,4,1.794,4,4v3C25,12.103,24.103,13,23,13z
		"/>
</g>
</svg>
