<?xml version="1.0" encoding="utf-8"?>
<!-- Generator: Adobe Illustrator 21.0.0, SVG Export Plug-In . SVG Version: 6.00 Build 0)  -->
<svg version="1.1" id="color" xmlns="http://www.w3.org/2000/svg" xmlns:xlink="http://www.w3.org/1999/xlink" x="0px" y="0px"
	 viewBox="0 0 32 32" enable-background="new 0 0 32 32" xml:space="preserve">
<path fill="#323232" d="M31,5H14.887C14.289,2.167,11.209,0,7.5,0C3.364,0,0,2.691,0,6s3.364,6,7.5,6c3.709,0,6.789-2.167,7.387-5
	H31c0.553,0,1-0.448,1-1S31.553,5,31,5z"/>
<path fill="#EBEBEB" d="M17,30h-1.246c-0.913-2.931-3.63-5-6.754-5c-3.123,0-5.841,2.07-6.754,5H1c-0.552,0-1,0.448-1,1s0.448,1,1,1
	h16c0.553,0,1-0.448,1-1S17.553,30,17,30z"/>
<g>
	<circle fill="#EBEBEB" cx="5.5" cy="15.5" r="1.5"/>
</g>
<g>
	<circle fill="#EBEBEB" cx="10.5" cy="18.5" r="1.5"/>
</g>
<g>
	<circle fill="#EBEBEB" cx="5.5" cy="21.5" r="1.5"/>
</g>
</svg>
