<?xml version="1.0" encoding="utf-8"?>
<!-- Generator: Adobe Illustrator 21.0.0, SVG Export Plug-In . SVG Version: 6.00 Build 0)  -->
<svg version="1.1" id="color" xmlns="http://www.w3.org/2000/svg" xmlns:xlink="http://www.w3.org/1999/xlink" x="0px" y="0px"
	 viewBox="0 0 32 32" enable-background="new 0 0 32 32" xml:space="preserve">
<g>
	<path fill="#F59D00" d="M7.32,32c-2.975,0-5.516-2.221-5.911-5.167l-1.33-9.748c-0.315-2.29,0.375-4.603,1.893-6.344
		C3.491,8.999,5.688,8,8,8h2.48c0.528,0,0.966,0.411,0.998,0.938l1.23,19.96c0.021,0.336-0.129,0.66-0.398,0.861l-1.4,1.05
		C9.878,31.578,8.604,32,7.32,32z"/>
</g>
<g>
	<path fill="#F59D00" d="M24.683,32c-1.284,0-2.558-0.422-3.587-1.188l-1.403-1.052c-0.27-0.202-0.419-0.526-0.398-0.862l1.23-19.96
		C20.557,8.411,20.995,8,21.523,8h2.48c2.312,0,4.509,1,6.028,2.742c1.518,1.742,2.208,4.054,1.892,6.345l-1.33,9.749
		C30.199,29.779,27.658,32,24.683,32z"/>
</g>
<path fill="#F2C500" d="M16.545,6.078c0.222-2.004,1.66-3.655,3.672-4.102c0.54-0.12,0.879-0.654,0.759-1.193
	c-0.12-0.54-0.654-0.878-1.193-0.759c-2.928,0.651-5,3.095-5.237,6.037C10.057,6.624,7,11.168,7,17.5C7,24.358,10.491,32,15.5,32
	S24,24.358,24,17.5C24,11.212,20.983,6.692,16.545,6.078z"/>
</svg>
