<?xml version="1.0" encoding="utf-8"?>
<!-- Generator: Adobe Illustrator 21.0.0, SVG Export Plug-In . SVG Version: 6.00 Build 0)  -->
<svg version="1.1" id="color" xmlns="http://www.w3.org/2000/svg" xmlns:xlink="http://www.w3.org/1999/xlink" x="0px" y="0px"
	 viewBox="0 0 32 32" enable-background="new 0 0 32 32" xml:space="preserve">
<g>
	<path fill="#EBEBEB" d="M23.1,16.55C22.37,14.1,22,11.56,22,9c0-0.55-0.45-1-1-1H11c-0.55,0-1,0.45-1,1c0,2.56-0.37,5.1-1.1,7.55
		L7.57,21h16.86L23.1,16.55z"/>
</g>
<g>
	<path fill="#323232" d="M22,10H10c-1.103,0-2-0.897-2-2c0-4.411,3.589-8,8-8s8,3.589,8,8C24,9.103,23.103,10,22,10z"/>
</g>
<g>
	<path fill="#323232" d="M25.76,25.48L24.43,21H7.57l-1.33,4.47C6.08,25.96,6,26.48,6,27c0,2.76,2.24,5,5,5h10c2.76,0,5-2.24,5-5
		C26,26.47,25.92,25.95,25.76,25.48z"/>
</g>
</svg>
