<?xml version="1.0" encoding="utf-8"?>
<!-- Generator: Adobe Illustrator 21.0.0, SVG Export Plug-In . SVG Version: 6.00 Build 0)  -->
<svg version="1.1" id="color" xmlns="http://www.w3.org/2000/svg" xmlns:xlink="http://www.w3.org/1999/xlink" x="0px" y="0px"
	 viewBox="0 0 32 32" enable-background="new 0 0 32 32" xml:space="preserve">
<path fill="#EBEBEB" d="M19,4h-2V1c0-0.552-0.447-1-1-1s-1,0.448-1,1v3h-2c-1.654,0-3,1.346-3,3v2c0,0.552,0.447,1,1,1h10
	c0.553,0,1-0.448,1-1V7C22,5.346,20.654,4,19,4z"/>
<g>
	<path fill="#EBEBEB" d="M8,16v8h16v-8H8z"/>
</g>
<g>
	<path fill="#323232" d="M8,29c0,1.65,1.35,3,3,3h10c1.65,0,3-1.35,3-3v-5H8V29z M21,8H11c-1.65,0-3,1.35-3,3v5h16v-5
		C24,9.35,22.65,8,21,8z"/>
</g>
</svg>
