<?xml version="1.0" encoding="utf-8"?>
<!-- Generator: Adobe Illustrator 21.0.0, SVG Export Plug-In . SVG Version: 6.00 Build 0)  -->
<svg version="1.1" id="color" xmlns="http://www.w3.org/2000/svg" xmlns:xlink="http://www.w3.org/1999/xlink" x="0px" y="0px"
	 viewBox="0 0 32 32" enable-background="new 0 0 32 32" xml:space="preserve">
<g>
	<path fill="#323232" d="M16.22,5.78l-0.71,1.65c-0.81,1.89-1.97,3.59-3.42,5.05c-0.39,0.39-0.39,1.02,0,1.41l6.07,6.07
		c0.19,0.19,0.44,0.29,0.71,0.29c0.26,0,0.52-0.1,0.7-0.29c1.46-1.46,3.16-2.61,5.04-3.42l1.65-0.72L16.22,5.78z"/>
</g>
<g>
	<path fill="#EBEBEB" d="M14.293,25c-1.948,0-3.779-0.759-5.157-2.136S7,19.655,7,17.707s0.759-3.779,2.136-5.157l0.5-0.5
		c0.779-0.78,2.049-0.78,2.828,0l0,0l7.485,7.485c0.78,0.78,0.78,2.048,0,2.828l-0.5,0.5C18.072,24.241,16.241,25,14.293,25z"/>
</g>
<g>
	<path fill="#EBEBEB" d="M29.87,5.73l-4.16-4.16c-1.93-1.93-4.99-2.11-6.96-0.4c-0.49,0.43-0.89,0.94-1.21,1.57l-1.32,3.04
		l10.04,10.04l3.11-1.34c0.57-0.29,1.08-0.69,1.51-1.18C32.7,11.2,32.29,8.15,29.87,5.73z"/>
</g>
<circle fill="#EBEBEB" cx="1.5" cy="26.5" r="1.5"/>
<circle fill="#EBEBEB" cx="5.5" cy="30.5" r="1.5"/>
<circle fill="#EBEBEB" cx="3.5" cy="20.5" r="1.5"/>
<circle fill="#EBEBEB" cx="11.5" cy="28.5" r="1.5"/>
<circle fill="#EBEBEB" cx="6.5" cy="25.5" r="1.5"/>
</svg>
