<?xml version="1.0" encoding="utf-8"?>
<!-- Generator: Adobe Illustrator 21.0.0, SVG Export Plug-In . SVG Version: 6.00 Build 0)  -->
<svg version="1.1" id="color" xmlns="http://www.w3.org/2000/svg" xmlns:xlink="http://www.w3.org/1999/xlink" x="0px" y="0px"
	 viewBox="0 0 32 32" enable-background="new 0 0 32 32" xml:space="preserve">
<g>
	<path fill="#8D5836" d="M25.001,6.999c-0.076,0-0.153-0.009-0.229-0.026C24.233,6.846,23.9,6.308,24.026,5.77
		c0.701-2.983,3.112-5.204,6.143-5.658l0.683-0.103c0.548-0.075,1.055,0.295,1.138,0.841c0.082,0.546-0.295,1.056-0.841,1.138
		l-0.683,0.103c-2.216,0.332-3.979,1.956-4.492,4.137C25.865,6.688,25.454,6.999,25.001,6.999z"/>
</g>
<g>
	<path fill="#BF9760" d="M6.5,32C2.916,32,0,29.084,0,25.5S2.916,19,6.5,19c0.692,0,1.369,0.109,2.022,0.326
		c1.159-1.388,2.834-2.229,4.652-2.318c0.481-2.06,1.936-3.75,3.898-4.535C17.024,12.151,17,11.826,17,11.5
		C17,7.916,19.916,5,23.5,5S30,7.916,30,11.5c0,2.699-1.632,5.055-4.073,6.028C25.976,17.849,26,18.174,26,18.5
		c0,3.476-2.742,6.323-6.177,6.492C19.14,27.865,16.524,30,13.5,30c-0.692,0-1.369-0.109-2.022-0.326C10.25,31.144,8.442,32,6.5,32z
		"/>
</g>
</svg>
