<svg id="Flat" xmlns="http://www.w3.org/2000/svg" viewBox="0 0 32 32"><path d="M31,22a1,1,0,0,1-1-1V18.364a2.994,2.994,0,0,0-2.486-2.955l-2.435-.424a1,1,0,1,1,.342-1.97l2.435.423A4.991,4.991,0,0,1,32,18.364V21A1,1,0,0,1,31,22Z" fill="#ebebeb"/><path d="M1,22a1,1,0,0,1-1-1V18.364a4.991,4.991,0,0,1,4.143-4.926l2.436-.423a1,1,0,1,1,.342,1.97l-2.435.424A2.993,2.993,0,0,0,2,18.364V21A1,1,0,0,1,1,22Z" fill="#ebebeb"/><path d="M16,0a6,6,0,0,0-6,6V7H22V6A6,6,0,0,0,16,0Z" fill="#ebebeb"/><path d="M24.59,12.7A3.232,3.232,0,0,1,22,9.54V7H10V9.54A3.232,3.232,0,0,1,7.41,12.7,3,3,0,0,0,5,15.64V29a3.009,3.009,0,0,0,3,3H24a3.009,3.009,0,0,0,3-3V15.64A3,3,0,0,0,24.59,12.7Z" fill="#05a9e3"/><path d="M16,27a5.006,5.006,0,0,1-5-5V21a2,2,0,0,1,2-2h6a2,2,0,0,1,2,2v1A5.006,5.006,0,0,1,16,27Z" fill="#ebebeb"/></svg>