<svg id="Flat" xmlns="http://www.w3.org/2000/svg" viewBox="0 0 32 32"><path d="M31,12H1a1,1,0,0,1-.995-1.1L.194,9.005A9.969,9.969,0,0,1,10.145,0h11.71a9.969,9.969,0,0,1,9.951,9.005L32,10.9A1,1,0,0,1,31,12Z" fill="#f2c500"/><path d="M16.3,4.95A.789.789,0,0,1,16,5a.993.993,0,0,1-.95-.7L13.69,0h2.09l1.17,3.7A.984.984,0,0,1,16.3,4.95Z" fill="#ebebeb"/><path d="M9.33,4.94A.96.96,0,0,1,9,5a1,1,0,0,1-.94-.67L6.74.6A9.046,9.046,0,0,1,8.68.11L9.94,3.67A.988.988,0,0,1,9.33,4.94Z" fill="#ebebeb"/><path d="M23.3,4.95A.789.789,0,0,1,23,5a.993.993,0,0,1-.95-.7L20.69,0h1.16c.32,0,.63.01.94.04L23.95,3.7A.984.984,0,0,1,23.3,4.95Z" fill="#ebebeb"/><path d="M25.764,32H6.236A5.981,5.981,0,0,1,.317,26.986l-.3-1.822A1,1,0,0,1,1,24H31a1,1,0,0,1,.986,1.164l-.3,1.822A5.981,5.981,0,0,1,25.764,32Z" fill="#f2c500"/><path d="M26,18a4.53,4.53,0,0,1-3.126-1.219,2.645,2.645,0,0,0-3.753,0,4.613,4.613,0,0,1-6.248,0,2.638,2.638,0,0,0-3.747,0A4.528,4.528,0,0,1,6,18a4.522,4.522,0,0,1-3.124-1.219A2.584,2.584,0,0,0,1,16a1,1,0,0,1,0-2,4.526,4.526,0,0,1,3.124,1.219,2.639,2.639,0,0,0,3.748,0,4.611,4.611,0,0,1,6.247,0,2.64,2.64,0,0,0,3.749,0,4.616,4.616,0,0,1,6.251,0,2.647,2.647,0,0,0,3.755,0A4.528,4.528,0,0,1,31,14a1,1,0,0,1,0,2,2.619,2.619,0,0,0-1.877.781A4.532,4.532,0,0,1,26,18Z" fill="#8bc02f"/><path d="M31,22H1a1,1,0,0,1,0-2H31a1,1,0,0,1,0,2Z" fill="#e84b3b"/></svg>