<svg id="Flat" xmlns="http://www.w3.org/2000/svg" viewBox="0 0 32 32"><path d="M11,32a2.972,2.972,0,0,1-2.122-.88l-8-8a3,3,0,0,1,0-4.243L8.522,11.1A7.045,7.045,0,0,1,13.517,9h3a4.97,4.97,0,0,0,3.536-1.465l1.742-1.742a1.029,1.029,0,0,1,1.414,0l3,3a1,1,0,0,1,0,1.414L24.465,11.95A4.967,4.967,0,0,0,23,15.485v3a7.045,7.045,0,0,1-2.095,4.994l-7.79,7.65A2.966,2.966,0,0,1,11,32Z" fill="#ebebeb"/><path d="M27,11a1.983,1.983,0,0,1-1.414-.586l-4-4a2,2,0,0,1,0-2.828l3-3a2.048,2.048,0,0,1,2.829,0l4,4a2,2,0,0,1,0,2.828l-3,3A1.981,1.981,0,0,1,27,11Z" fill="#05a9e3"/><path d="M15.41,18a1.992,1.992,0,0,0-2.82,0L9,21.59a1.992,1.992,0,0,0,0,2.82l5.43,5.44,6.47-6.36Z" fill="#05a9e3"/></svg>