<svg id="Flat" xmlns="http://www.w3.org/2000/svg" viewBox="0 0 32 32"><path d="M23.76,6.1a7.986,7.986,0,0,0-15.52,0A8.5,8.5,0,0,0,7,22.63V27H25V22.63A8.5,8.5,0,0,0,23.76,6.1Z" fill="#05a9e3"/><path d="M16,15a1,1,0,0,1-1-1V9a1,1,0,0,1,2,0v5A1,1,0,0,1,16,15Z" fill="#ebebeb"/><path d="M11,19a1,1,0,0,1-.707-.293A7.773,7.773,0,0,1,8,13.172V13a1,1,0,0,1,2,0v.172a5.789,5.789,0,0,0,1.707,4.121A1,1,0,0,1,11,19Z" fill="#ebebeb"/><path d="M21,19a1,1,0,0,1-.707-1.707A5.789,5.789,0,0,0,22,13.172V13a1,1,0,0,1,2,0v.172a7.773,7.773,0,0,1-2.293,5.535A1,1,0,0,1,21,19Z" fill="#ebebeb"/><path d="M7,27v2a3.009,3.009,0,0,0,3,3H22a3.009,3.009,0,0,0,3-3V27Z" fill="#ebebeb"/></svg>