<svg id="Flat" xmlns="http://www.w3.org/2000/svg" viewBox="0 0 32 32"><path d="M18,14H14a1,1,0,0,1-1-1V11a3,3,0,0,1,6,0v2A1,1,0,0,1,18,14Z" fill="#bebebe"/><path d="M28,28H4a1,1,0,0,1-1-1V25a13,13,0,0,1,26,0v2A1,1,0,0,1,28,28Z" fill="#ebf0f2"/><path d="M29,32H3a3,3,0,0,1,0-6H29a3,3,0,0,1,0,6Z" fill="#05a9e3"/><path d="M4.506,9a1,1,0,0,1-.645-1.766l.923-.776a.6.6,0,0,0,.208-.565.593.593,0,0,0-.366-.465A2.582,2.582,0,0,1,3.033,3.422a2.59,2.59,0,0,1,.9-2.41L4.852.234A1,1,0,0,1,6.139,1.766l-.923.776a.6.6,0,0,0-.208.565.593.593,0,0,0,.366.465,2.612,2.612,0,0,1,.7,4.416l-.923.778A1,1,0,0,1,4.506,9Z" fill="#05a9e3"/><path d="M26.506,9a1,1,0,0,1-.645-1.766l.923-.776a.6.6,0,0,0,.208-.565.593.593,0,0,0-.366-.465,2.582,2.582,0,0,1-1.593-2.006,2.59,2.59,0,0,1,.9-2.41l.923-.778a1,1,0,0,1,1.287,1.532l-.923.776a.6.6,0,0,0-.208.565.593.593,0,0,0,.366.465,2.612,2.612,0,0,1,.7,4.416l-.923.778A1,1,0,0,1,26.506,9Z" fill="#05a9e3"/></svg>