<svg id="Flat" xmlns="http://www.w3.org/2000/svg" viewBox="0 0 32 32"><path d="M16,0A16.021,16.021,0,0,0,0,16a3,3,0,0,0,6,0V15a3,3,0,0,1,3-3,2.961,2.961,0,0,1,1.97.74,5.987,5.987,0,0,1,10.06,0A2.961,2.961,0,0,1,23,12a3,3,0,0,1,3,3v1a3,3,0,0,0,6,0A16.021,16.021,0,0,0,16,0Z" fill="#f59d00"/><path d="M29,19a3,3,0,0,1-3-3V15a3,3,0,0,0-3-3,2.961,2.961,0,0,0-1.97.74A5.893,5.893,0,0,1,22,16a6,6,0,0,1-12,0,5.893,5.893,0,0,1,.97-3.26A2.961,2.961,0,0,0,9,12a3,3,0,0,0-3,3v1a3,3,0,0,1-6,0,16,16,0,0,0,32,0A3,3,0,0,1,29,19Z" fill="#f2c500"/><path d="M8,9a1,1,0,0,1-.707-1.707l1-1A1,1,0,1,1,9.707,7.707l-1,1A1,1,0,0,1,8,9Z" fill="#ebebeb"/><path d="M16,6a1,1,0,0,1-.707-.293l-1-1a1,1,0,0,1,1.414-1.414l1,1A1,1,0,0,1,16,6Z" fill="#ebebeb"/><path d="M24,9a1,1,0,0,1-.707-.293l-1-1a1,1,0,0,1,1.414-1.414l1,1A1,1,0,0,1,24,9Z" fill="#ebebeb"/></svg>