<svg id="Flat" xmlns="http://www.w3.org/2000/svg" viewBox="0 0 32 32"><path d="M18,10a1,1,0,0,1-1-1V5a1,1,0,0,1,2,0V9A1,1,0,0,1,18,10Z" fill="#bebebe"/><path d="M20,6H16a1,1,0,0,1,0-2h4a1,1,0,0,1,0,2Z" fill="#bebebe"/><path d="M28,22H8a1,1,0,0,1-1-1V19a11,11,0,0,1,22,0v2A1,1,0,0,1,28,22Z" fill="#ebebeb"/><path d="M29,26H7a3,3,0,0,1,0-6H29a3,3,0,0,1,0,6Z" fill="#05a9e3"/><path d="M8,10H1A1,1,0,0,1,1,8H8a1,1,0,0,1,0,2Z" fill="#05a9e3"/><path d="M5,14H1a1,1,0,0,1,0-2H5a1,1,0,0,1,0,2Z" fill="#05a9e3"/><path d="M2,18H1a1,1,0,0,1,0-2H2a1,1,0,0,1,0,2Z" fill="#05a9e3"/></svg>