<svg id="Flat" xmlns="http://www.w3.org/2000/svg" viewBox="0 0 32 32"><path d="M24.28,32c-.071,0-.143,0-.215-.008A26.243,26.243,0,0,1,.007,7.947,2.745,2.745,0,0,1,.721,5.894a2.642,2.642,0,0,1,1.94-.856L7.884,5a2.676,2.676,0,0,1,2.607,2.02l1.091,4.334a2.658,2.658,0,0,1-.994,2.785L8.605,15.615a20.141,20.141,0,0,0,7.674,7.713L17.814,21.3a2.683,2.683,0,0,1,2.79-.985l4.365,1.083A2.666,2.666,0,0,1,27,23.982v5.35a2.615,2.615,0,0,1-.85,1.94A2.755,2.755,0,0,1,24.28,32Z" fill="#ebebeb"/><path d="M31,8H30a6.006,6.006,0,0,0-5-5.91V1a1,1,0,0,0-2,0V2.09A6.006,6.006,0,0,0,18,8H17a1,1,0,0,0,0,2H31a1,1,0,0,0,0-2Z" fill="#05a9e3"/></svg>