<svg id="Flat" xmlns="http://www.w3.org/2000/svg" viewBox="0 0 32 32"><path d="M9,8H3A1,1,0,0,1,3,6H9A1,1,0,0,1,9,8Z" fill="#8bc02f"/><path d="M9,26H3a1,1,0,0,1,0-2H9a1,1,0,0,1,0,2Z" fill="#42a141"/><path d="M27,0H8A3.009,3.009,0,0,0,5,3V21H30V3A3.009,3.009,0,0,0,27,0Z" fill="#8bc02f"/><path d="M5,21v8a3.009,3.009,0,0,0,3,3H27a3.009,3.009,0,0,0,3-3V21Z" fill="#42a141"/><path d="M24,14H23v-.5a5.506,5.506,0,0,0-4.5-5.4V7a1,1,0,0,0-2,0V8.1A5.506,5.506,0,0,0,12,13.5V14H11a1,1,0,0,0,0,2H24a1,1,0,0,0,0-2Z" fill="#ebebeb"/></svg>