<svg id="Flat" xmlns="http://www.w3.org/2000/svg" viewBox="0 0 32 32"><path d="M26,30H6A6,6,0,0,1,.909,20.823l10-16h0a6,6,0,0,1,10.182,0l10,16A6,6,0,0,1,26,30Z" fill="#ebebeb"/><path d="M21,30H11V22a4,4,0,0,1,4-4h2a4,4,0,0,1,4,4Z" fill="#05a9e3"/><path d="M15,10a1,1,0,0,1-.707-1.707l1-1a1,1,0,1,1,1.414,1.414l-1,1A1,1,0,0,1,15,10Z" fill="#bebebe"/><path d="M13,16a1,1,0,0,1-.707-.293l-1-1a1,1,0,0,1,1.414-1.414l1,1A1,1,0,0,1,13,16Z" fill="#bebebe"/><path d="M19,14a1,1,0,0,1-.707-1.707l1-1a1,1,0,0,1,1.414,1.414l-1,1A1,1,0,0,1,19,14Z" fill="#bebebe"/><path d="M23,18a1,1,0,0,1-.707-.293l-1-1a1,1,0,0,1,1.414-1.414l1,1A1,1,0,0,1,23,18Z" fill="#bebebe"/><path d="M25,23a1,1,0,0,1-.707-1.707l1-1a1,1,0,0,1,1.414,1.414l-1,1A1,1,0,0,1,25,23Z" fill="#bebebe"/><path d="M8,20a1,1,0,0,1-.707-1.707l1-1a1,1,0,0,1,1.414,1.414l-1,1A1,1,0,0,1,8,20Z" fill="#bebebe"/><path d="M7,25a1,1,0,0,1-.707-.293l-1-1a1,1,0,0,1,1.414-1.414l1,1A1,1,0,0,1,7,25Z" fill="#bebebe"/></svg>