<svg id="Flat" xmlns="http://www.w3.org/2000/svg" viewBox="0 0 32 32"><circle cx="16" cy="6" r="4" fill="#f59d00"/><rect x="3" y="23" width="26" height="5" rx="2.5" fill="#bf9760"/><rect x="3" y="18" width="26" height="5" rx="2.5" fill="#8d5836"/><rect x="3" y="13" width="26" height="5" rx="2.5" fill="#bf9760"/><path d="M31,30H1a1,1,0,0,1,0-2H31a1,1,0,0,1,0,2Z" fill="#bebebe"/><path d="M26.5,8H5.5a2.5,2.5,0,0,0,0,5H8a1,1,0,0,1,1,1v7a3,3,0,0,0,6,0V15a1,1,0,0,1,2,0v1a3,3,0,0,0,6,0V14a1,1,0,0,1,1-1h2.5a2.5,2.5,0,0,0,0-5Z" fill="#f2c500"/></svg>