<svg id="Flat" xmlns="http://www.w3.org/2000/svg" viewBox="0 0 32 32"><path d="M17.5,15.5a1,1,0,0,1-.707-1.707l7-7a1,1,0,1,1,1.414,1.414l-7,7A1,1,0,0,1,17.5,15.5Z" fill="#bebebe"/><path d="M24.5,15A7.5,7.5,0,1,1,32,7.5,7.508,7.508,0,0,1,24.5,15Z" fill="#ebebeb"/><path d="M17.08,14.92a10.338,10.338,0,0,1-2.85-5.24.886.886,0,0,0-.49.29L1.3,23.64A5,5,0,0,0,8.36,30.7L22.03,18.26a.886.886,0,0,0,.29-.49A10.338,10.338,0,0,1,17.08,14.92Z" fill="#8bc02f"/><path d="M24.467,19.007a11.377,11.377,0,0,1-8.095-3.382A11.4,11.4,0,0,1,13.328,4.763a1,1,0,1,1,1.943.474,9.417,9.417,0,0,0,2.515,8.974,9.411,9.411,0,0,0,8.977,2.518,1,1,0,1,1,.474,1.943A11.69,11.69,0,0,1,24.467,19.007Z" fill="#8bc02f"/><circle cx="24.5" cy="7.5" r="2.5" fill="#bebebe"/></svg>