<svg id="Flat" xmlns="http://www.w3.org/2000/svg" viewBox="0 0 32 32"><path d="M4.354,30.927a3.035,3.035,0,0,1-2.112-4.155L11.9,4.334l.869.286A23.325,23.325,0,0,1,28.38,20.228l.286.869L6.226,30.759A3.054,3.054,0,0,1,4.354,30.927Z" fill="#f2c500"/><path d="M7,13H1a1,1,0,0,1,0-2H7a1,1,0,0,1,0,2Z" fill="#8d5836"/><path d="M10,17H3a1,1,0,0,1,0-2h7a1,1,0,0,1,0,2Z" fill="#8d5836"/><path d="M8,21H1a1,1,0,0,1,0-2H8a1,1,0,0,1,0,2Z" fill="#8d5836"/><path d="M19,20a3.994,3.994,0,0,0-3.05,6.58l7.02-3.03A3.973,3.973,0,0,0,19,20Z" fill="#e94b35"/><path d="M17.963,13.87a3.991,3.991,0,0,1-.857-7.379,22.089,22.089,0,0,1,5.8,4.352A4,4,0,0,1,17.963,13.87Z" fill="#e94b35"/><path d="M9,26a1,1,0,0,1-.707-1.707l1-1a1,1,0,0,1,1.414,1.414l-1,1A1,1,0,0,1,9,26Z" fill="#ebebeb"/><path d="M15,18a1,1,0,0,1-.707-.293l-1-1a1,1,0,0,1,1.414-1.414l1,1A1,1,0,0,1,15,18Z" fill="#ebebeb"/><path d="M27.43,21.54a.989.989,0,0,1-.412-.089,1,1,0,0,1-.538-.6A21.155,21.155,0,0,0,12.148,6.52a1,1,0,0,1-.607-1.343l1-2.34a3.015,3.015,0,0,1,3.74-1.688A23.165,23.165,0,0,1,31.851,16.72a3.015,3.015,0,0,1-1.692,3.741l-2.336,1A.99.99,0,0,1,27.43,21.54Z" fill="#f59d00"/></svg>