<svg id="Flat" xmlns="http://www.w3.org/2000/svg" viewBox="0 0 32 32"><path d="M32,13v2.15a3.976,3.976,0,0,1-2.21,3.57l-1.79.9V17.38l.89-.45A1.967,1.967,0,0,0,30,15.15V13H2v2.15a1.967,1.967,0,0,0,1.11,1.78l.89.45v2.24l-1.79-.9A3.976,3.976,0,0,1,0,15.15V13a2.006,2.006,0,0,1,2-2H30A2.006,2.006,0,0,1,32,13Z" fill="#42a141"/><path d="M16,8a1,1,0,0,1-1-1V3a1,1,0,0,1,2,0V7A1,1,0,0,1,16,8Z" fill="#42a141"/><path d="M19,4H13a1,1,0,0,1,0-2h6a1,1,0,0,1,0,2Z" fill="#42a141"/><path d="M23,30H9a5,5,0,0,1-5-5V11.75H28V25A5,5,0,0,1,23,30Z" fill="#8bc02f"/><path d="M4,12V11A5.006,5.006,0,0,1,9,6H23a5.006,5.006,0,0,1,5,5v1Z" fill="#42a141"/></svg>