<svg id="Flat" xmlns="http://www.w3.org/2000/svg" viewBox="0 0 32 32"><path d="M29,28H3a1,1,0,0,1-1-1.083l1-12A1,1,0,0,1,4,14H28a1,1,0,0,1,1,.917l1,12A1,1,0,0,1,29,28Z" fill="#bf9760"/><path d="M28,32H4a4,4,0,0,1-4-4V27a1,1,0,0,1,1-1H31a1,1,0,0,1,1,1v1A4,4,0,0,1,28,32Z" fill="#ebebeb"/><path d="M16,11a3,3,0,1,1,3-3A3,3,0,0,1,16,11Z" fill="#f59d00"/><path d="M16,7a1,1,0,0,1-1-1A6.111,6.111,0,0,1,19.638.061L19.755.03a1,1,0,0,1,.49,1.94l-.12.03A4.116,4.116,0,0,0,17,6,1,1,0,0,1,16,7Z" fill="#f59d00"/><path d="M18.508,23a3.386,3.386,0,0,1-2.334-.945A3.743,3.743,0,0,1,15,19.34V17.5a1.507,1.507,0,0,0-.437-1.062,1.49,1.49,0,0,0-.97-.435,1.441,1.441,0,0,0-1.048.4A1.739,1.739,0,0,0,12,17.66V18a2.944,2.944,0,0,1-.892,2.126,2.975,2.975,0,0,1-2.772.8A3.074,3.074,0,0,1,6,17.888,1.89,1.89,0,0,0,4.112,16H3.563a2.588,2.588,0,0,1-1.939-.865,2.468,2.468,0,0,1-.606-1.928,1.016,1.016,0,0,1,.034-.164l.138-.468A5.033,5.033,0,0,1,5.983,9H25.5a5.018,5.018,0,0,1,4.955,4.331l.521,3.862a2.474,2.474,0,0,1-.6,1.942A2.588,2.588,0,0,1,28.437,20H28a3,3,0,0,1-3-3v-.5a1.507,1.507,0,0,0-.437-1.062,1.49,1.49,0,0,0-.97-.435,1.433,1.433,0,0,0-1.048.4A1.739,1.739,0,0,0,22,16.66V19.5a3.489,3.489,0,0,1-3.29,3.493C18.643,23,18.576,23,18.508,23Z" fill="#f2c500"/></svg>