<svg id="Flat" xmlns="http://www.w3.org/2000/svg" viewBox="0 0 32 32"><path d="M10,32a1,1,0,0,1-1-1V28a1,1,0,0,1,2,0v3A1,1,0,0,1,10,32Z" fill="#42a141"/><path d="M22,32a1,1,0,0,1-1-1V28a1,1,0,0,1,2,0v3A1,1,0,0,1,22,32Z" fill="#42a141"/><path d="M23,0H9A3.009,3.009,0,0,0,6,3v8H26V3A3.009,3.009,0,0,0,23,0Z" fill="#8bc02f"/><path d="M6,11V26a3.009,3.009,0,0,0,3,3H23a3.009,3.009,0,0,0,3-3V11Z" fill="#42a141"/><path d="M26,7H22a1,1,0,0,1,0-2h4Z" fill="#ebebeb"/><path d="M26,18H22a1,1,0,0,1,0-2h4Z" fill="#ebebeb"/></svg>