<svg id="Flat" xmlns="http://www.w3.org/2000/svg" viewBox="0 0 32 32"><path d="M27.98,13H4.02a1,1,0,0,1-1-1.075A7.524,7.524,0,0,1,8.986,5.159a7.994,7.994,0,0,1,14.028,0,7.524,7.524,0,0,1,5.964,6.766,1,1,0,0,1-1,1.075Z" fill="#ebebeb"/><path d="M23.71,25.29A13.935,13.935,0,0,1,17,27H15a13.935,13.935,0,0,1-6.71-1.71A1.014,1.014,0,0,0,8,26v2a3.009,3.009,0,0,0,3,3H21a3.009,3.009,0,0,0,3-3V26A1.014,1.014,0,0,0,23.71,25.29Z" fill="#f59d00"/><path d="M17,28H15A15.017,15.017,0,0,1,0,13a2,2,0,0,1,2-2H30a2,2,0,0,1,2,2A15.017,15.017,0,0,1,17,28Z" fill="#f2c500"/></svg>