<svg id="Flat" xmlns="http://www.w3.org/2000/svg" viewBox="0 0 32 32"><path d="M3.5,32a3.5,3.5,0,0,1-2.23-6.2l3.353-2.773a1,1,0,0,1,1.344.064l2.94,2.94a1,1,0,0,1,.064,1.344L6.2,30.727A3.5,3.5,0,0,1,3.5,32Z" fill="#bf9760"/><path d="M26.74,9.2a1,1,0,0,1-.707-.293l-2.94-2.94a1,1,0,0,1-.064-1.344l2.77-3.35A3.5,3.5,0,1,1,30.73,6.2L27.377,8.971A.991.991,0,0,1,26.74,9.2Z" fill="#bf9760"/><path d="M11.5,30a3.472,3.472,0,0,1-2.475-1.026l-6-6a3.5,3.5,0,0,1,0-4.95l15-15a3.584,3.584,0,0,1,4.95,0l6,6a3.5,3.5,0,0,1,0,4.95l-15,15A3.475,3.475,0,0,1,11.5,30Z" fill="#8d5836"/></svg>