<svg id="Flat" xmlns="http://www.w3.org/2000/svg" viewBox="0 0 32 32"><path d="M16,9a1,1,0,0,1-.991-1.142l.755-5.282A3.014,3.014,0,0,1,18.734,0H24a1,1,0,0,1,0,2H18.734a1,1,0,0,0-.989.858L16.99,8.142A1,1,0,0,1,16,9Z" fill="#05a9e3"/><path d="M21.1,32H10.9A3,3,0,0,1,7.9,29.157L7,12.053A1,1,0,0,1,8,11H24a1,1,0,0,1,1,1.053l-.9,17.105A3,3,0,0,1,21.1,32Z" fill="#05a9e3"/><path d="M26,13H6a2,2,0,0,1-2-2V9A2,2,0,0,1,6,7H26a2,2,0,0,1,2,2v2A2,2,0,0,1,26,13Z" fill="#ebebeb"/><path d="M7.31,18l.37,7H24.32l.37-7Z" fill="#ebebeb"/></svg>