<svg id="Flat" xmlns="http://www.w3.org/2000/svg" viewBox="0 0 32 32"><path d="M11.07,22.051a1,1,0,0,1-.738-1.694l5.647-5.852a1,1,0,0,1,1.439,1.388l-5.647,5.852A1,1,0,0,1,11.07,22.051Z" fill="#bebebe"/><path d="M3,32a3,3,0,0,1-3-3,2.972,2.972,0,0,1,.88-2.122l7.292-7.292a2.047,2.047,0,0,1,2.828,0L12.414,21a2,2,0,0,1,0,2.828L5.121,31.121A2.976,2.976,0,0,1,3,32Z" fill="#05a9e3"/><path d="M21.5,20a2.486,2.486,0,0,1-1.768-.732l-7-7a2.5,2.5,0,0,1,0-3.536l8-8a2.56,2.56,0,0,1,3.536,0l7,7a2.5,2.5,0,0,1,0,3.536l-8,8A2.486,2.486,0,0,1,21.5,20Z" fill="#ebebeb"/><path d="M19,11a1,1,0,0,1-.707-1.707l3-3a1,1,0,1,1,1.414,1.414l-3,3A1,1,0,0,1,19,11Z" fill="#bebebe"/><path d="M22,14a1,1,0,0,1-.707-1.707l3-3a1,1,0,0,1,1.414,1.414l-3,3A1,1,0,0,1,22,14Z" fill="#bebebe"/></svg>