<svg id="Flat" xmlns="http://www.w3.org/2000/svg" viewBox="0 0 32 32"><path d="M23,16.75a1,1,0,0,1-1-1v-2.5a1,1,0,0,1,2,0v2.5A1,1,0,0,1,23,16.75Z" fill="#ebebeb"/><path d="M23,13c-2.757,0-5-2.916-5-6.5S20.243,0,23,0s5,2.916,5,6.5S25.757,13,23,13Z" fill="#ebebeb"/><path d="M9,16.75a1,1,0,0,1-1-1V1a1,1,0,0,1,2,0V15.75A1,1,0,0,1,9,16.75Z" fill="#ebebeb"/><path d="M9,11A5.006,5.006,0,0,1,4,6V1A1,1,0,0,1,6,1V6a3,3,0,0,0,6,0V1a1,1,0,0,1,2,0V6A5.006,5.006,0,0,1,9,11Z" fill="#ebebeb"/><path d="M23,32a3,3,0,0,1-3-3V17a2,2,0,0,1,2-2h2a2,2,0,0,1,2,2V29A3,3,0,0,1,23,32Z" fill="#05a9e3"/><path d="M9,32a3,3,0,0,1-3-3V17a2,2,0,0,1,2-2h2a2,2,0,0,1,2,2V29A3,3,0,0,1,9,32Z" fill="#05a9e3"/></svg>