<svg id="Flat" xmlns="http://www.w3.org/2000/svg" viewBox="0 0 32 32"><path d="M4.438,27H2a1,1,0,0,1-.97-1.242l1-4A1,1,0,0,1,3,21H7a1,1,0,0,1,.97,1.242l-.621,2.486A3,3,0,0,1,4.438,27Z" fill="#ebebeb"/><path d="M30,27H27.562a3,3,0,0,1-2.911-2.271l-.621-2.487A1,1,0,0,1,25,21h4a1,1,0,0,1,.97.758l1,4A1,1,0,0,1,30,27Z" fill="#ebebeb"/><path d="M31.977,19.622,30.433,7.375A5.009,5.009,0,0,0,25.472,3H6.528A5.009,5.009,0,0,0,1.567,7.375L.023,19.624A3.111,3.111,0,0,0,0,20a3,3,0,0,0,3,3H7.36a2.979,2.979,0,0,0,1.994-.781h.1A2.963,2.963,0,0,0,11.439,23h9.122a2.963,2.963,0,0,0,1.985-.781h.1A2.979,2.979,0,0,0,24.64,23H29a3,3,0,0,0,3-3A3.17,3.17,0,0,0,31.977,19.622Z" fill="#05a9e3"/></svg>