<?xml version="1.0" encoding="utf-8"?>
<!-- Generator: Adobe Illustrator 21.0.0, SVG Export Plug-In . SVG Version: 6.00 Build 0)  -->
<svg version="1.1" id="flat" xmlns="http://www.w3.org/2000/svg" xmlns:xlink="http://www.w3.org/1999/xlink" x="0px" y="0px"
	 viewBox="0 0 32 32" enable-background="new 0 0 32 32" xml:space="preserve">
<g>
	<path fill="#8BC02F" d="M16,9.5c-0.552,0-1-0.448-1-1V7.472c0-3.14,1.745-5.963,4.553-7.367c0.495-0.247,1.095-0.046,1.342,0.447
		c0.247,0.494,0.046,1.095-0.447,1.342C18.321,2.958,17,5.095,17,7.472V8.5C17,9.053,16.552,9.5,16,9.5z"/>
</g>
<g>
	<path fill="#E94B35" d="M20.545,32c-0.31,0-0.618-0.023-0.922-0.07c-1.151-0.192-2.196-0.696-3.116-1.501
		c-0.256-0.211-0.734-0.229-1.035,0.019c-0.898,0.786-1.942,1.29-3.082,1.48c-2.362,0.366-4.889-0.684-7.138-2.951
		c-2.375-2.368-4.095-5.75-4.84-9.519c-0.762-3.762-0.457-7.466,0.861-10.425c1.245-2.814,3.242-4.578,5.623-4.964
		c2.013-0.309,3.77,0.472,4.893,1.181c0.366,0.225,0.746,0.492,1.131,0.764c1.015,0.715,2.065,1.455,3.08,1.455
		s2.065-0.74,3.081-1.456c0.386-0.272,0.765-0.539,1.141-0.77c1.113-0.703,2.875-1.484,4.874-1.176
		c2.389,0.387,4.387,2.151,5.632,4.967c1.317,2.957,1.623,6.661,0.859,10.427c-0.744,3.765-2.465,7.146-4.843,9.519
		C24.79,30.95,22.62,32,20.545,32z"/>
</g>
<g>
	<path fill="#EBEBEB" d="M13,22c-0.256,0-0.512-0.098-0.707-0.293l-0.451-0.45c-0.842-0.842-1.257-2.003-1.14-3.188
		c0.118-1.184,0.752-2.241,1.743-2.901c0.459-0.308,1.08-0.182,1.387,0.277c0.306,0.459,0.182,1.08-0.277,1.387
		c-0.49,0.326-0.804,0.85-0.861,1.435c-0.058,0.586,0.147,1.16,0.563,1.576l0.45,0.45c0.391,0.39,0.391,1.023,0.001,1.414
		C13.512,21.902,13.256,22,13,22z"/>
</g>
<g>
	<path fill="#EBEBEB" d="M19,22c-0.256,0-0.512-0.098-0.708-0.293c-0.39-0.391-0.39-1.024,0.001-1.414l0.451-0.45
		c0.416-0.416,0.621-0.99,0.563-1.576c-0.058-0.585-0.372-1.108-0.861-1.435c-0.459-0.307-0.583-0.927-0.277-1.387
		c0.307-0.459,0.927-0.585,1.387-0.277c0.99,0.66,1.625,1.718,1.743,2.901c0.117,1.185-0.298,2.346-1.14,3.188l-0.451,0.45
		C19.512,21.902,19.256,22,19,22z"/>
</g>
</svg>
