<?xml version="1.0" encoding="utf-8"?>
<!-- Generator: Adobe Illustrator 21.0.0, SVG Export Plug-In . SVG Version: 6.00 Build 0)  -->
<svg version="1.1" id="flat" xmlns="http://www.w3.org/2000/svg" xmlns:xlink="http://www.w3.org/1999/xlink" x="0px" y="0px"
	 viewBox="0 0 32 32" enable-background="new 0 0 32 32" xml:space="preserve">
<g>
	<path fill="#8BC02F" d="M29,9.5c-0.063,0-0.125-0.006-0.187-0.018l-5.42-1.03c-0.525-0.1-0.879-0.594-0.804-1.123l0.736-5.181
		C23.501,0.923,24.565,0,25.802,0H27.5C28.879,0,30,1.122,30,2.5v6c0,0.298-0.133,0.58-0.362,0.771C29.457,9.42,29.23,9.5,29,9.5z"
		/>
</g>
<g>
	<path fill="#F2C500" d="M9.216,32c-1.752,0-3.379-0.313-4.94-0.941c-1.376-0.553-3.212-1.477-3.274-3.109
		c-0.083-2.188,3.048-3.733,7.013-5.689c5.652-2.788,10.043-7.36,13.425-13.977c0.848-1.658,2.744-2.535,4.843-2.229
		c2.335,0.34,4.105,1.961,4.507,4.129c1.651,8.906-6.679,17.92-15.496,20.751C13.08,31.646,11.078,32,9.216,32z"/>
</g>
</svg>
