<?xml version="1.0" encoding="utf-8"?>
<!-- Generator: Adobe Illustrator 21.0.0, SVG Export Plug-In . SVG Version: 6.00 Build 0)  -->
<svg version="1.1" id="flat" xmlns="http://www.w3.org/2000/svg" xmlns:xlink="http://www.w3.org/1999/xlink" x="0px" y="0px"
	 viewBox="0 0 32 32" enable-background="new 0 0 32 32" xml:space="preserve">
<g>
	<path fill="#42A141" d="M17.35,15c-0.1,0-0.201-0.015-0.301-0.046l-6.29-1.98c-0.379-0.12-0.651-0.453-0.693-0.849
		c-0.421-3.962,1.338-7.942,5.228-11.832c0.391-0.391,1.023-0.391,1.414,0c2.576,2.576,4.229,5.205,4.911,7.814
		c0.066,0.257,0.029,0.529-0.104,0.758l-3.301,5.64C18.029,14.818,17.697,15,17.35,15z"/>
</g>
<g>
	<path fill="#8BC02F" d="M25.04,18.3H20c-0.247,0-0.484-0.091-0.668-0.256l-2.65-2.38c-0.261-0.233-0.38-0.586-0.314-0.93
		C17.714,7.611,22.637,4,31,4c0.553,0,1,0.447,1,1c0,6.459-2.184,10.895-6.491,13.183C25.365,18.26,25.204,18.3,25.04,18.3z"/>
</g>
<g>
	<path fill="#EBEBEB" d="M19.5,17.5c-0.256,0-0.512-0.098-0.707-0.293c-0.391-0.391-0.391-1.023,0-1.414l6.5-6.5
		c0.391-0.391,1.023-0.391,1.414,0s0.391,1.023,0,1.414l-6.5,6.5C20.012,17.402,19.756,17.5,19.5,17.5z"/>
</g>
<g>
	<path fill="#EBEBEB" d="M16,14.5c-0.553,0-1-0.447-1-1V8c0-0.553,0.447-1,1-1s1,0.447,1,1v5.5C17,14.053,16.553,14.5,16,14.5z"/>
</g>
<g>
	<path fill="#6D2AB0" d="M10.5,32C4.71,32,0,27.29,0,21.5S4.71,11,10.5,11c4.348,0,8.187,2.616,9.78,6.664l0.107,0.274
		l-2.135,10.644l-0.202,0.21C16.093,30.831,13.341,32,10.5,32z"/>
</g>
<g>
	<path fill="#9C56B8" d="M23,32c-4.411,0-8-3.589-8-8s3.589-8,8-8s8,3.589,8,8S27.411,32,23,32z"/>
</g>
<g>
	<circle fill="#EBEBEB" cx="24.5" cy="22.5" r="1.5"/>
</g>
<g>
	<circle fill="#EBEBEB" cx="7" cy="23" r="2"/>
</g>
</svg>
