<?xml version="1.0" encoding="utf-8"?>
<!-- Generator: Adobe Illustrator 21.0.0, SVG Export Plug-In . SVG Version: 6.00 Build 0)  -->
<svg version="1.1" id="flat" xmlns="http://www.w3.org/2000/svg" xmlns:xlink="http://www.w3.org/1999/xlink" x="0px" y="0px"
	 viewBox="0 0 32 32" enable-background="new 0 0 32 32" xml:space="preserve">
<g>
	<path fill="#8BC02F" d="M10.501,17c-0.065,0-0.131-0.006-0.197-0.02c-0.542-0.108-0.893-0.635-0.785-1.176l0.156-0.782
		C11.417,6.318,19.123,0,28,0c0.446,0,0.838,0.295,0.961,0.724c0.123,0.429-0.053,0.887-0.431,1.124
		c-4.522,2.826-6.933,8.06-6.142,13.333l0.101,0.67c0.082,0.546-0.294,1.056-0.84,1.137c-0.546,0.083-1.055-0.294-1.137-0.84
		l-0.101-0.67c-0.734-4.892,0.929-9.753,4.33-13.155c-6.492,1.3-11.767,6.408-13.104,13.092l-0.156,0.781
		C11.386,16.671,10.968,17,10.501,17z"/>
</g>
<g>
	<path fill="#C23824" d="M10.5,32C5.813,32,2,28.187,2,23.5S5.813,15,10.5,15c2.372,0,4.646,1.001,6.239,2.746L17,18.032v10.936
		l-0.261,0.287C15.146,30.999,12.872,32,10.5,32z"/>
</g>
<g>
	<path fill="#E94B35" d="M21.5,32c-4.687,0-8.5-3.813-8.5-8.5s3.813-8.5,8.5-8.5s8.5,3.813,8.5,8.5S26.187,32,21.5,32z"/>
</g>
</svg>
