<?xml version="1.0" encoding="utf-8"?>
<!-- Generator: Adobe Illustrator 21.0.0, SVG Export Plug-In . SVG Version: 6.00 Build 0)  -->
<svg version="1.1" id="flat" xmlns="http://www.w3.org/2000/svg" xmlns:xlink="http://www.w3.org/1999/xlink" x="0px" y="0px"
	 viewBox="0 0 32 32" enable-background="new 0 0 32 32" xml:space="preserve">
<g>
	<path fill="#8D5836" d="M26.77,7.058c-0.159,0-0.318-0.007-0.479-0.021c-0.55-0.05-0.955-0.536-0.905-1.087
		c0.051-0.549,0.524-0.961,1.087-0.905c0.962,0.083,1.898-0.253,2.579-0.934s1.021-1.621,0.934-2.579l-0.04-0.44
		c-0.05-0.551,0.355-1.037,0.905-1.087c0.561-0.049,1.036,0.356,1.087,0.905l0.04,0.44c0.141,1.552-0.41,3.073-1.512,4.175
		C29.478,6.513,28.152,7.058,26.77,7.058z"/>
</g>
<g>
	<path fill="#BF9760" d="M7.502,32c-0.105,0-0.21-0.001-0.315-0.003l0,0c-4.897-0.072-7.112-2.287-7.184-7.183
		C-0.158,14.991,7.186,6.065,14.38,3.112c4.856-1.995,9.427-1.267,12.545,1.994c3.229,3.086,3.956,7.659,1.963,12.514
		C25.965,24.735,17.2,31.999,7.502,32z"/>
</g>
<g>
	<path fill="#8D5836" d="M2.5,30.5c-0.261,0-0.517-0.103-0.707-0.293c-0.263-0.263-0.358-0.649-0.248-1.004
		C5.271,17.225,13.46,9.031,25.882,4.851c0.36-0.121,0.759-0.027,1.026,0.241c0.269,0.268,0.361,0.665,0.241,1.025
		C22.987,18.52,14.795,26.708,2.798,30.454C2.7,30.485,2.6,30.5,2.5,30.5z"/>
</g>
</svg>
