<?xml version="1.0" encoding="utf-8"?>
<!-- Generator: Adobe Illustrator 21.0.0, SVG Export Plug-In . SVG Version: 6.00 Build 0)  -->
<svg version="1.1" id="flat" xmlns="http://www.w3.org/2000/svg" xmlns:xlink="http://www.w3.org/1999/xlink" x="0px" y="0px"
	 viewBox="0 0 32 32" enable-background="new 0 0 32 32" xml:space="preserve">
<g>
	<path fill="#8BC02F" d="M16,9.001c-0.419,0-0.81-0.266-0.949-0.686l-0.076-0.229c-0.574-1.72-0.366-3.6,0.57-5.155
		c0.936-1.556,2.5-2.619,4.291-2.917c0.545-0.091,1.06,0.277,1.15,0.822c0.091,0.545-0.277,1.06-0.822,1.151
		c-1.213,0.202-2.271,0.922-2.906,1.976c-0.634,1.053-0.774,2.326-0.386,3.492l0.077,0.231c0.174,0.524-0.11,1.09-0.634,1.264
		C16.211,8.984,16.104,9.001,16,9.001z"/>
</g>
<g>
	<path fill="#F2C500" d="M19.777,31.999c-0.906,0-1.736-0.693-2.484-1.318c-0.365-0.305-1.045-0.872-1.296-0.89
		c-0.245,0.018-0.925,0.585-1.29,0.89c-0.896,0.749-1.907,1.602-3.037,1.229c-1.153-0.377-1.483-1.691-1.775-2.852
		c-0.119-0.474-0.318-1.267-0.496-1.432c-0.196-0.113-1.016-0.06-1.502-0.027c-1.183,0.077-2.518,0.163-3.225-0.814
		c-0.697-0.967-0.209-2.21,0.223-3.306c0.185-0.47,0.494-1.254,0.436-1.497c-0.096-0.199-0.768-0.626-1.169-0.881
		C3.148,20.459,2,19.729,2,18.497s1.148-1.961,2.161-2.604c0.401-0.255,1.073-0.682,1.174-0.895c0.054-0.229-0.256-1.014-0.44-1.483
		c-0.432-1.097-0.92-2.339-0.223-3.305C5.38,9.23,6.719,9.316,7.896,9.394c0.489,0.031,1.306,0.084,1.516-0.037
		c0.165-0.156,0.364-0.948,0.483-1.422c0.292-1.16,0.622-2.475,1.777-2.853c1.128-0.369,2.14,0.482,3.035,1.23
		c0.365,0.305,1.045,0.873,1.296,0.89c0.245-0.017,0.925-0.585,1.29-0.89c0.897-0.749,1.915-1.601,3.036-1.229
		c1.154,0.377,1.484,1.692,1.776,2.852c0.119,0.474,0.318,1.267,0.496,1.432c0.196,0.112,1.012,0.059,1.503,0.027
		c1.177-0.077,2.516-0.165,3.224,0.814c0.697,0.967,0.209,2.209-0.223,3.306c-0.185,0.469-0.494,1.254-0.436,1.497
		c0.096,0.2,0.768,0.626,1.169,0.881C28.852,16.535,30,17.264,30,18.497s-1.148,1.962-2.161,2.604
		c-0.401,0.255-1.073,0.682-1.174,0.896c-0.054,0.229,0.256,1.013,0.44,1.482c0.432,1.096,0.92,2.339,0.223,3.305
		c-0.707,0.979-2.043,0.893-3.225,0.815c-0.49-0.032-1.305-0.084-1.515,0.037c-0.165,0.155-0.364,0.948-0.483,1.421
		c-0.292,1.161-0.622,2.476-1.777,2.853C20.142,31.971,19.958,31.999,19.777,31.999z"/>
</g>
<g>
	<path fill="#F59D00" d="M18,15c-0.411,0-0.796-0.255-0.941-0.665C16.73,13.418,16.28,13,16,13s-0.73,0.418-1.059,1.336
		c-0.186,0.52-0.756,0.791-1.277,0.606c-0.521-0.186-0.791-0.758-0.605-1.278C13.662,11.971,14.734,11,16,11
		s2.338,0.971,2.941,2.664c0.186,0.52-0.085,1.092-0.605,1.278C18.225,14.981,18.111,15,18,15z"/>
</g>
<g>
	<path fill="#F59D00" d="M13,20c-0.411,0-0.796-0.255-0.941-0.664C11.73,18.418,11.28,18,11,18s-0.73,0.418-1.059,1.336
		c-0.186,0.52-0.756,0.793-1.277,0.605c-0.521-0.186-0.791-0.757-0.605-1.277C8.662,16.971,9.734,16,11,16s2.338,0.971,2.941,2.664
		c0.186,0.521-0.085,1.092-0.605,1.277C13.225,19.981,13.111,20,13,20z"/>
</g>
<g>
	<path fill="#F59D00" d="M23,20c-0.411,0-0.796-0.255-0.941-0.664C21.73,18.418,21.28,18,21,18s-0.73,0.418-1.059,1.336
		c-0.186,0.52-0.756,0.793-1.277,0.605c-0.521-0.186-0.791-0.757-0.605-1.277C18.662,16.971,19.734,16,21,16
		s2.338,0.971,2.941,2.664c0.186,0.521-0.085,1.092-0.605,1.277C23.225,19.981,23.111,20,23,20z"/>
</g>
<g>
	<path fill="#F59D00" d="M18,26c-0.411,0-0.796-0.255-0.941-0.664C16.73,24.418,16.28,24,16,24s-0.73,0.418-1.059,1.336
		c-0.186,0.52-0.756,0.792-1.277,0.605c-0.521-0.185-0.791-0.757-0.605-1.277C13.662,22.971,14.734,22,16,22
		s2.338,0.971,2.941,2.664c0.186,0.521-0.085,1.093-0.605,1.277C18.225,25.981,18.111,26,18,26z"/>
</g>
</svg>
