<?xml version="1.0" encoding="utf-8"?>
<!-- Generator: Adobe Illustrator 21.0.0, SVG Export Plug-In . SVG Version: 6.00 Build 0)  -->
<svg version="1.1" id="flat" xmlns="http://www.w3.org/2000/svg" xmlns:xlink="http://www.w3.org/1999/xlink" x="0px" y="0px"
	 viewBox="0 0 32 32" enable-background="new 0 0 32 32" xml:space="preserve">
<g>
	<path fill="#8BC02F" d="M16,9.001c-0.552,0-1-0.447-1-1V7.1c0-3.43,2.441-6.407,5.804-7.079c0.547-0.113,1.069,0.243,1.177,0.784
		c0.108,0.542-0.243,1.068-0.784,1.177C18.765,2.468,17,4.621,17,7.1v0.901C17,8.554,16.552,9.001,16,9.001z"/>
</g>
<g>
	<path fill="#9C56B8" d="M16,32c-2.757,0-5-2.243-5-5s2.243-5,5-5s5,2.243,5,5S18.757,32,16,32z"/>
</g>
<g>
	<path fill="#6D2AB0" d="M20,24.5c-2.757,0-5-2.243-5-5s2.243-5,5-5s5,2.243,5,5S22.757,24.5,20,24.5z"/>
</g>
<g>
	<path fill="#EBEBEB" d="M12,24.5c-2.757,0-5-2.243-5-5s2.243-5,5-5s5,2.243,5,5S14.757,24.5,12,24.5z"/>
</g>
<g>
	<path fill="#EBEBEB" d="M24,17c-2.757,0-5-2.243-5-5s2.243-5,5-5s5,2.243,5,5S26.757,17,24,17z"/>
</g>
<g>
	<path fill="#9C56B8" d="M16,17c-2.757,0-5-2.243-5-5s2.243-5,5-5s5,2.243,5,5S18.757,17,16,17z"/>
</g>
<g>
	<path fill="#6D2AB0" d="M8,17c-2.757,0-5-2.243-5-5s2.243-5,5-5s5,2.243,5,5S10.757,17,8,17z"/>
</g>
</svg>
