<?xml version="1.0" encoding="utf-8"?>
<!-- Generator: Adobe Illustrator 21.0.0, SVG Export Plug-In . SVG Version: 6.00 Build 0)  -->
<svg version="1.1" id="flat" xmlns="http://www.w3.org/2000/svg" xmlns:xlink="http://www.w3.org/1999/xlink" x="0px" y="0px"
	 viewBox="0 0 32 32" enable-background="new 0 0 32 32" xml:space="preserve">
<g>
	<path fill="#8BC02F" d="M13,32C5.832,32,0,26.168,0,19c0-2.835,0.897-5.53,2.594-7.793l4.199-5.599
		c0.174-0.232,0.44-0.377,0.729-0.397C7.807,5.185,8.096,5.296,8.3,5.501l18.199,18.198c0.205,0.205,0.311,0.488,0.29,0.778
		c-0.021,0.289-0.165,0.555-0.396,0.729l-5.599,4.2C18.53,31.104,15.835,32,13,32z"/>
</g>
<g>
	<path fill="#EBEBEB" d="M18,28c-7.72,0-14-6.28-14-14c0-3.054,0.966-5.956,2.793-8.392C9.466,2.044,13.551,0,18,0
		c7.72,0,14,6.28,14,14c0,4.449-2.044,8.534-5.608,11.206C23.956,27.034,21.055,28,18,28z"/>
</g>
<path fill="#8BC02F" d="M25,13h-3.142c-0.185-0.711-0.549-1.35-1.058-1.85l1.566-2.713c0.276-0.479,0.112-1.09-0.366-1.366
	c-0.478-0.276-1.09-0.112-1.366,0.366l-1.572,2.724C18.721,10.067,18.37,10,18,10c-0.37,0-0.721,0.067-1.062,0.161l-1.572-2.724
	C15.089,6.96,14.479,6.795,14,7.071c-0.478,0.276-0.642,0.888-0.366,1.366l1.566,2.713c-0.509,0.5-0.873,1.138-1.058,1.849H11
	c-0.552,0-1,0.447-1,1s0.448,1,1,1h3.142c0.185,0.711,0.549,1.349,1.058,1.849l-1.566,2.713c-0.276,0.479-0.112,1.09,0.366,1.366
	c0.158,0.091,0.33,0.134,0.499,0.134c0.346,0,0.682-0.18,0.867-0.5l1.572-2.724C17.279,17.933,17.63,18,18,18
	c0.37,0,0.721-0.067,1.062-0.161l1.572,2.724c0.186,0.32,0.521,0.5,0.867,0.5c0.17,0,0.342-0.043,0.499-0.134
	c0.479-0.276,0.643-0.888,0.366-1.366L20.8,16.85c0.509-0.5,0.873-1.138,1.058-1.85H25c0.553,0,1-0.447,1-1S25.553,13,25,13z"/>
</svg>
