<?xml version="1.0" encoding="utf-8"?>
<!-- Generator: Adobe Illustrator 21.0.0, SVG Export Plug-In . SVG Version: 6.00 Build 0)  -->
<svg version="1.1" id="flat" xmlns="http://www.w3.org/2000/svg" xmlns:xlink="http://www.w3.org/1999/xlink" x="0px" y="0px"
	 viewBox="0 0 32 32" enable-background="new 0 0 32 32" xml:space="preserve">
<g>
	<path fill="#EBEBEB" d="M12.852,32c-4.092,0-8.197-1.301-11.635-3.947c-0.712-0.548-1.153-1.371-1.21-2.261
		c-0.057-0.875,0.267-1.733,0.887-2.353h0L23.438,0.895c0.62-0.622,1.483-0.952,2.354-0.887c0.89,0.058,1.714,0.498,2.261,1.21
		c5.837,7.582,5.128,18.41-1.648,25.186C22.7,30.109,17.785,32,12.852,32z"/>
</g>
<g>
	<path fill="#F2C500" d="M23.47,2.27c-0.18-0.19-0.44-0.3-0.7-0.3c-0.22-0.01-0.53,0.1-0.72,0.29l-9.89,9.9l15.75,0.77
		C27.86,9.1,26.38,5.24,23.47,2.27z"/>
</g>
<g>
	<path fill="#F59D00" d="M12.16,12.16l11.45,11.45c2.91-2.91,4.34-6.78,4.3-10.68L12.16,12.16z"/>
</g>
<g>
	<path fill="#F2C500" d="M12.16,12.16l0.77,15.74h0.18c3.83,0,7.63-1.43,10.5-4.29L12.16,12.16z"/>
</g>
<g>
	<path fill="#F59D00" d="M12.16,12.16l-9.9,9.89c-0.19,0.19-0.29,0.45-0.29,0.72c0,0.26,0.11,0.52,0.3,0.7
		c2.97,2.91,6.83,4.38,10.66,4.43L12.16,12.16z"/>
</g>
</svg>
