<?xml version="1.0" encoding="utf-8"?>
<!-- Generator: Adobe Illustrator 21.0.0, SVG Export Plug-In . SVG Version: 6.00 Build 0)  -->
<svg version="1.1" id="flat" xmlns="http://www.w3.org/2000/svg" xmlns:xlink="http://www.w3.org/1999/xlink" x="0px" y="0px"
	 viewBox="0 0 32 32" enable-background="new 0 0 32 32" xml:space="preserve">
<g>
	<path fill="#EBEBEB" d="M28,14H4v-1C4,5.832,9.383,0,16,0s12,5.832,12,13V14z"/>
</g>
<g>
	<path fill="#E94B35" d="M16,29C8.613,29,2.465,22.419,2.003,14.019c-0.028-0.514,0.155-1.006,0.517-1.387
		C2.901,12.23,3.442,12,4.005,12h23.99c0.563,0,1.104,0.23,1.485,0.632c0.361,0.381,0.545,0.873,0.518,1.386
		C29.535,22.419,23.387,29,16,29z"/>
</g>
<g>
	<path fill="#C23824" d="M16,32c-0.553,0-1-0.448-1-1v-5c0-0.552,0.447-1,1-1s1,0.448,1,1v5C17,31.552,16.553,32,16,32z"/>
</g>
<g>
	<path fill="#C23824" d="M5.394,27.606c-0.256,0-0.512-0.098-0.707-0.293c-0.391-0.391-0.391-1.023,0-1.414l3.575-3.575
		c0.391-0.391,1.023-0.391,1.414,0s0.391,1.023,0,1.414l-3.575,3.575C5.905,27.509,5.649,27.606,5.394,27.606z"/>
</g>
<g>
	<path fill="#C23824" d="M26.606,27.606c-0.256,0-0.512-0.098-0.707-0.293l-3.61-3.61c-0.391-0.391-0.391-1.023,0-1.414
		s1.023-0.391,1.414,0l3.61,3.61c0.391,0.391,0.391,1.023,0,1.414C27.118,27.509,26.862,27.606,26.606,27.606z"/>
</g>
<g>
	<path fill="#C23824" d="M31.001,19.347c-0.05,0-0.101-0.003-0.151-0.011l-5-0.763c-0.546-0.083-0.922-0.594-0.838-1.14
		c0.083-0.545,0.589-0.925,1.139-0.838l5,0.763c0.546,0.083,0.922,0.594,0.838,1.14C31.913,18.992,31.487,19.347,31.001,19.347z"/>
</g>
<g>
	<path fill="#C23824" d="M0.999,19.347c-0.486,0-0.912-0.354-0.987-0.849c-0.084-0.546,0.292-1.056,0.838-1.14l5-0.763
		c0.545-0.087,1.056,0.292,1.139,0.838c0.084,0.546-0.292,1.056-0.838,1.14l-5,0.763C1.1,19.343,1.049,19.347,0.999,19.347z"/>
</g>
</svg>
