<?xml version="1.0" encoding="utf-8"?>
<!-- Generator: Adobe Illustrator 21.0.0, SVG Export Plug-In . SVG Version: 6.00 Build 0)  -->
<svg version="1.1" id="flat" xmlns="http://www.w3.org/2000/svg" xmlns:xlink="http://www.w3.org/1999/xlink" x="0px" y="0px"
	 viewBox="0 0 32 32" enable-background="new 0 0 32 32" xml:space="preserve">
<g>
	<path fill="#BEBEBE" d="M21.78,13.03c-0.49-4.43-2.44-9.76-5.54-13.02C16.16,0,16.08,0,16,0s-0.16,0-0.24,0.01
		c-3.1,3.26-5.05,8.59-5.54,13.02L10.02,16h11.96L21.78,13.03z"/>
</g>
<g>
	<path fill="#EBEBEB" d="M16.24,0.01c3.1,3.26,5.05,8.59,5.54,13.02l0.2,2.97H29c0.55,0,1-0.45,1-1C30,6.82,23.85,0.14,16.24,0.01z
		 M2,15c0,0.55,0.45,1,1,1h7.02l0.2-2.97c0.49-4.43,2.44-9.76,5.54-13.02C8.15,0.14,2,6.82,2,15z"/>
</g>
<g>
	<path fill="#9C56B8" d="M16,32C7.563,32,0.537,25.012,0.003,16.092c-0.033-0.541,0.157-1.059,0.532-1.458
		C0.916,14.231,1.451,14,2.005,14h27.99c0.554,0,1.09,0.231,1.47,0.635c0.375,0.399,0.564,0.917,0.531,1.458
		C31.464,25.012,24.438,32,16,32z"/>
</g>
</svg>
