<?xml version="1.0" encoding="utf-8"?>
<!-- Generator: Adobe Illustrator 21.0.0, SVG Export Plug-In . SVG Version: 6.00 Build 0)  -->
<svg version="1.1" id="flat" xmlns="http://www.w3.org/2000/svg" xmlns:xlink="http://www.w3.org/1999/xlink" x="0px" y="0px"
	 viewBox="0 0 32 32" enable-background="new 0 0 32 32" xml:space="preserve">
<g>
	<path fill="#8BC02F" d="M26.5,7c-0.405,0-0.786-0.248-0.936-0.649c-0.194-0.517,0.067-1.094,0.584-1.288l0.689-0.259
		c1.7-0.637,2.916-2.149,3.172-3.946c0.077-0.547,0.587-0.927,1.131-0.849c0.547,0.078,0.927,0.584,0.849,1.131
		c-0.36,2.521-2.064,4.643-4.449,5.537l-0.689,0.258C26.736,6.979,26.617,7,26.5,7z"/>
</g>
<g>
	<path fill="#F2C500" d="M8.483,32c-1.62,0-3.464-0.394-5.481-1.171c-1.609-0.62-2.712-1.77-2.953-3.077
		c-0.2-1.087,0.219-2.161,1.178-3.021c3.083-2.766,4.272-6.154,4.47-7.226c1.057-5.725,3.572-10.193,7.08-12.58
		c2.572-1.751,5.536-2.313,8.81-1.671l0.027,0.006c5.395,1.212,9.079,4.391,10.106,8.72c1.115,4.696-1.092,9.858-5.903,13.808
		C20.93,29.798,14.964,31.947,8.565,32C8.538,32,8.51,32,8.483,32z"/>
</g>
</svg>
