<?xml version="1.0" encoding="utf-8"?>
<!-- Generator: Adobe Illustrator 21.0.0, SVG Export Plug-In . SVG Version: 6.00 Build 0)  -->
<svg version="1.1" id="flat" xmlns="http://www.w3.org/2000/svg" xmlns:xlink="http://www.w3.org/1999/xlink" x="0px" y="0px"
	 viewBox="0 0 32 32" enable-background="new 0 0 32 32" xml:space="preserve">
<g>
	<path fill="#F2C500" d="M12.851,32c-4.092,0-8.197-1.301-11.635-3.948c-0.712-0.548-1.153-1.372-1.21-2.261
		c-0.057-0.875,0.267-1.733,0.886-2.353h0L23.438,0.893c0.62-0.62,1.483-0.939,2.353-0.887c0.89,0.058,1.714,0.499,2.262,1.21
		c5.837,7.583,5.128,18.412-1.648,25.188C22.7,30.109,17.785,32,12.851,32z"/>
</g>
<path fill="#EBEBEB" d="M20.53,4.97c-0.24-0.23-0.58-0.32-0.9-0.26h-0.01L4.7,19.63c-0.07,0.31,0.03,0.66,0.27,0.9
	c2.3,2.3,5.23,3.45,8.13,3.45c2.79,0,5.54-1.06,7.68-3.2C25.14,16.42,25.03,9.47,20.53,4.97z"/>
<g>
	<path fill="#F2C500" d="M16,17c-0.256,0-0.512-0.098-0.707-0.293l-1-1c-0.391-0.391-0.391-1.023,0-1.414s1.023-0.391,1.414,0l1,1
		c0.391,0.391,0.391,1.023,0,1.414C16.512,16.902,16.256,17,16,17z"/>
</g>
<g>
	<path fill="#F2C500" d="M18,13c-0.552,0-1-0.448-1-1v-1c0-0.552,0.448-1,1-1s1,0.448,1,1v1C19,12.552,18.552,13,18,13z"/>
</g>
<g>
	<path fill="#F2C500" d="M12,19h-1c-0.552,0-1-0.447-1-1s0.448-1,1-1h1c0.552,0,1,0.447,1,1S12.552,19,12,19z"/>
</g>
</svg>
