<?xml version="1.0" encoding="utf-8"?>
<!-- Generator: Adobe Illustrator 21.0.0, SVG Export Plug-In . SVG Version: 6.00 Build 0)  -->
<svg version="1.1" id="flat" xmlns="http://www.w3.org/2000/svg" xmlns:xlink="http://www.w3.org/1999/xlink" x="0px" y="0px"
	 viewBox="0 0 32 32" enable-background="new 0 0 32 32" xml:space="preserve">
<g>
	<path fill="#8BC02F" d="M16,8c-0.552,0-1-0.447-1-1c0-2.848,1.583-5.409,4.13-6.684l0.423-0.211
		c0.496-0.246,1.095-0.047,1.341,0.447c0.247,0.494,0.046,1.095-0.448,1.342l-0.422,0.211C18.159,3.039,17,4.914,17,7
		C17,7.553,16.552,8,16,8z"/>
</g>
<g>
	<path fill="#F2C500" d="M16,32C8.28,32,2,26.168,2,19S8.28,6,16,6s14,5.832,14,13S23.72,32,16,32z"/>
</g>
<g>
	<path fill="#F59D00" d="M24,21c-0.256,0-0.512-0.098-0.707-0.293c-0.391-0.391-0.391-1.023,0-1.414l1-1
		c0.391-0.391,1.023-0.391,1.414,0s0.391,1.023,0,1.414l-1,1C24.512,20.902,24.256,21,24,21z"/>
</g>
<g>
	<path fill="#F59D00" d="M22,26c-0.256,0-0.512-0.098-0.707-0.293c-0.391-0.391-0.391-1.023,0-1.414l1-1
		c0.391-0.391,1.023-0.391,1.414,0s0.391,1.023,0,1.414l-1,1C22.512,25.902,22.256,26,22,26z"/>
</g>
<g>
	<path fill="#F59D00" d="M19,22c-0.256,0-0.512-0.098-0.707-0.293c-0.391-0.391-0.391-1.023,0-1.414l1-1
		c0.391-0.391,1.023-0.391,1.414,0s0.391,1.023,0,1.414l-1,1C19.512,21.902,19.256,22,19,22z"/>
</g>
</svg>
