<?xml version="1.0" encoding="utf-8"?>
<!-- Generator: Adobe Illustrator 21.0.0, SVG Export Plug-In . SVG Version: 6.00 Build 0)  -->
<svg version="1.1" id="flat" xmlns="http://www.w3.org/2000/svg" xmlns:xlink="http://www.w3.org/1999/xlink" x="0px" y="0px"
	 viewBox="0 0 32 32" enable-background="new 0 0 32 32" xml:space="preserve">
<g>
	<path fill="#F2C500" d="M11.826,32c-2.355,0-4.714-0.524-6.867-1.638c-4.231-2.189-4.615-6.163-4.923-9.356L0,20.592
		C-0.004,13.307,2.858,8.47,8.751,5.806c4.464-2.017,7.894-3.536,11.118-4.928c3.628-1.563,6.825-1.038,9.499,1.565
		c2.717,2.643,3.345,5.902,1.816,9.426l-0.665,1.537c-1.511,3.498-3.074,7.116-4.868,10.56C23.018,29.021,17.439,32,11.826,32z"/>
</g>
<g>
	<path fill="#EBEBEB" d="M12.126,26.998c-1.399,0-2.803-0.311-4.082-0.974c-2.607-1.349-2.847-3.833-3.021-5.647L5,20.103
		c-0.002-4.318,1.703-7.188,5.213-8.775c2.095-0.947,4.195-1.886,6.308-2.796c2.197-0.951,4.225-0.613,5.854,0.974
		c1.68,1.635,2.069,3.649,1.124,5.826L23.123,16.2c-0.858,1.99-1.747,4.048-2.772,6.015C18.784,25.226,15.465,26.998,12.126,26.998z
		"/>
</g>
<g>
	<path fill="#505050" d="M19,15c-0.256,0-0.512-0.098-0.707-0.293l-1-1c-0.391-0.391-0.391-1.023,0-1.414s1.023-0.391,1.414,0l1,1
		c0.391,0.391,0.391,1.023,0,1.414C19.512,14.902,19.256,15,19,15z"/>
</g>
<g>
	<path fill="#505050" d="M16,22c-0.256,0-0.512-0.098-0.707-0.293l-1-1c-0.391-0.391-0.391-1.023,0-1.414s1.023-0.391,1.414,0l1,1
		c0.391,0.391,0.391,1.023,0,1.414C16.512,21.902,16.256,22,16,22z"/>
</g>
<g>
	<path fill="#505050" d="M14,17c-0.256,0-0.512-0.098-0.707-0.293l-1-1c-0.391-0.391-0.391-1.023,0-1.414s1.023-0.391,1.414,0l1,1
		c0.391,0.391,0.391,1.023,0,1.414C14.512,16.902,14.256,17,14,17z"/>
</g>
<g>
	<path fill="#505050" d="M11,23c-0.256,0-0.512-0.098-0.707-0.293l-1-1c-0.391-0.391-0.391-1.023,0-1.414s1.023-0.391,1.414,0l1,1
		c0.391,0.391,0.391,1.023,0,1.414C11.512,22.902,11.256,23,11,23z"/>
</g>
</svg>
