<?xml version="1.0" encoding="utf-8"?>
<!-- Generator: Adobe Illustrator 21.0.0, SVG Export Plug-In . SVG Version: 6.00 Build 0)  -->
<svg version="1.1" id="flat" xmlns="http://www.w3.org/2000/svg" xmlns:xlink="http://www.w3.org/1999/xlink" x="0px" y="0px"
	 viewBox="0 0 32 32" enable-background="new 0 0 32 32" xml:space="preserve">
<g>
	<path fill="#8BC02F" d="M23.607,30c-0.074,0-0.148-0.001-0.222-0.003c-2.521-0.074-5.002-1.413-7.386-3.981
		c-2.384,2.569-4.864,3.907-7.386,3.981c-2.746,0.062-5.583-1.37-8.344-4.313c-0.36-0.385-0.36-0.983,0-1.368
		c1.759-1.875,3.569-3.156,5.382-3.807C5.761,20.47,5.875,20.45,5.99,20.45h20.02c0.115,0,0.229,0.02,0.338,0.059
		c1.813,0.651,3.623,1.932,5.382,3.807c0.36,0.385,0.36,0.983,0,1.368C29.042,28.549,26.311,30,23.607,30z"/>
</g>
<g>
	<path fill="#E94B35" d="M19.821,26c-1.338,0-2.673-0.349-3.824-0.991c-0.291,0.158-0.593,0.3-0.901,0.424
		c-3.202,1.284-6.859,0.323-9.105-2.397c-2.222-2.692-2.615-6.625-0.979-9.787c2.221-4.29,5.635-7.916,10.438-11.084
		c0.334-0.22,0.767-0.22,1.101,0c4.797,3.16,8.212,6.785,10.439,11.081c1.634,3.162,1.241,7.096-0.975,9.791
		C24.45,24.921,22.193,26,19.821,26z"/>
</g>
<g>
	<path fill="#C23824" d="M19.94,21.48l-0.72,1.89c-0.33,0.86-0.77,1.66-1.32,2.38c-0.67-0.16-1.31-0.41-1.9-0.74
		c-0.05,0.03-0.1,0.05-0.15,0.08c0.65-0.69,1.16-1.52,1.5-2.43l0.72-1.88c0.19-0.52,0.77-0.78,1.28-0.59
		C19.87,20.39,20.13,20.97,19.94,21.48z"/>
</g>
</svg>
