<?xml version="1.0" encoding="utf-8"?>
<!-- Generator: Adobe Illustrator 21.0.0, SVG Export Plug-In . SVG Version: 6.00 Build 0)  -->
<svg version="1.1" id="flat" xmlns="http://www.w3.org/2000/svg" xmlns:xlink="http://www.w3.org/1999/xlink" x="0px" y="0px"
	 viewBox="0 0 32 32" enable-background="new 0 0 32 32" xml:space="preserve">
<g>
	<path fill="#8BC02F" d="M25.969,7.41c-0.474,0-0.895-0.338-0.983-0.821c-0.099-0.543,0.262-1.063,0.805-1.162l0.602-0.109
		C28.483,4.938,30,3.123,30,1c0-0.553,0.448-1,1-1s1,0.447,1,1c0,3.091-2.208,5.734-5.25,6.285l-0.601,0.108
		C26.089,7.405,26.028,7.41,25.969,7.41z"/>
</g>
<g>
	<path fill="#F2C500" d="M11.472,32c-0.425,0-0.852-0.023-1.278-0.07C4.911,31.347,0.654,27.089,0.07,21.807
		c-0.361-3.271,0.681-6.543,2.859-8.975c2.18-2.435,5.303-3.83,8.569-3.83c0.001,0,0.002,0,0.003,0c0.52,0,0.952-0.27,1.12-0.687
		c1.38-3.413,4.788-5.54,8.458-5.294c4.151,0.276,7.621,3.746,7.898,7.899l0,0c0.246,3.679-1.882,7.077-5.294,8.457
		c-0.418,0.169-0.687,0.603-0.686,1.105c0,3.284-1.396,6.407-3.831,8.588C17.053,30.965,14.304,32,11.472,32z"/>
</g>
</svg>
