<?xml version="1.0" encoding="utf-8"?>
<!-- Generator: Adobe Illustrator 21.0.0, SVG Export Plug-In . SVG Version: 6.00 Build 0)  -->
<svg version="1.1" id="flat" xmlns="http://www.w3.org/2000/svg" xmlns:xlink="http://www.w3.org/1999/xlink" x="0px" y="0px"
	 viewBox="0 0 32 32" enable-background="new 0 0 32 32" xml:space="preserve">
<g>
	<path fill="#8BC02F" d="M24.137,15.935c-0.259,0-0.515-0.101-0.708-0.293l-7.071-7.07c-0.319-0.319-0.385-0.813-0.161-1.204
		l3.935-6.864C20.316,0.184,20.664,0,21.028,0c0.369,0.011,0.701,0.224,0.866,0.553l1.612,3.225l5.177-1.726
		c0.358-0.122,0.755-0.027,1.023,0.241c0.268,0.268,0.361,0.664,0.242,1.023l-1.726,5.177l3.224,1.612
		c0.33,0.165,0.542,0.498,0.552,0.866c0.011,0.368-0.183,0.713-0.502,0.896l-6.864,3.935C24.478,15.892,24.307,15.935,24.137,15.935
		z"/>
</g>
<g>
	<path fill="#F2C500" d="M10.113,32c-2.841,0-5.381-0.997-7.255-2.87c-4.389-4.389-3.64-12.28,1.671-17.591
		c2.545-2.546,5.755-4.135,9.039-4.474c3.361-0.344,6.398,0.648,8.552,2.803c4.389,4.389,3.64,12.28-1.671,17.591
		c-2.545,2.546-5.755,4.135-9.039,4.474C10.972,31.978,10.54,32,10.113,32z"/>
</g>
<g>
	<path fill="#EBEBEB" d="M18,15c-0.256,0-0.512-0.098-0.707-0.293c-0.391-0.391-0.391-1.023,0-1.414l1-1
		c0.391-0.391,1.023-0.391,1.414,0s0.391,1.023,0,1.414l-1,1C18.512,14.902,18.256,15,18,15z"/>
</g>
<g>
	<path fill="#EBEBEB" d="M18,22c-0.256,0-0.512-0.098-0.707-0.293c-0.391-0.391-0.391-1.023,0-1.414l1-1
		c0.391-0.391,1.023-0.391,1.414,0s0.391,1.023,0,1.414l-1,1C18.512,21.902,18.256,22,18,22z"/>
</g>
<g>
	<path fill="#EBEBEB" d="M11,15c-0.256,0-0.512-0.098-0.707-0.293c-0.391-0.391-0.391-1.023,0-1.414l1-1
		c0.391-0.391,1.023-0.391,1.414,0s0.391,1.023,0,1.414l-1,1C11.512,14.902,11.256,15,11,15z"/>
</g>
<g>
	<path fill="#EBEBEB" d="M13,27c-0.256,0-0.512-0.098-0.707-0.293c-0.391-0.391-0.391-1.023,0-1.414l1-1
		c0.391-0.391,1.023-0.391,1.414,0s0.391,1.023,0,1.414l-1,1C13.512,26.902,13.256,27,13,27z"/>
</g>
<g>
	<path fill="#EBEBEB" d="M6,20c-0.256,0-0.512-0.098-0.707-0.293c-0.391-0.391-0.391-1.023,0-1.414l1-1
		c0.391-0.391,1.023-0.391,1.414,0s0.391,1.023,0,1.414l-1,1C6.512,19.902,6.256,20,6,20z"/>
</g>
<g>
	<path fill="#EBEBEB" d="M12,21c-0.256,0-0.512-0.098-0.707-0.293c-0.391-0.391-0.391-1.023,0-1.414l1-1
		c0.391-0.391,1.023-0.391,1.414,0s0.391,1.023,0,1.414l-1,1C12.512,20.902,12.256,21,12,21z"/>
</g>
<g>
	<path fill="#EBEBEB" d="M6,27c-0.256,0-0.512-0.098-0.707-0.293c-0.391-0.391-0.391-1.023,0-1.414l1-1
		c0.391-0.391,1.023-0.391,1.414,0s0.391,1.023,0,1.414l-1,1C6.512,26.902,6.256,27,6,27z"/>
</g>
</svg>
