<?xml version="1.0" encoding="utf-8"?>
<!-- Generator: Adobe Illustrator 21.0.0, SVG Export Plug-In . SVG Version: 6.00 Build 0)  -->
<svg version="1.1" id="flat" xmlns="http://www.w3.org/2000/svg" xmlns:xlink="http://www.w3.org/1999/xlink" x="0px" y="0px"
	 viewBox="0 0 32 32" enable-background="new 0 0 32 32" xml:space="preserve">
<g>
	<path fill="#E94B35" d="M14,32C6.28,32,0,25.72,0,18S6.28,4,14,4c1.046,0,2.081,0.114,3.075,0.34
		c0.452,0.101,0.9-0.085,1.117-0.464l1.94-3.374c0.184-0.319,0.542-0.519,0.896-0.501c0.368,0.011,0.7,0.223,0.865,0.552
		l1.612,3.224l5.177-1.726c0.359-0.12,0.756-0.027,1.023,0.242c0.268,0.268,0.361,0.664,0.241,1.023l-1.726,5.177l3.225,1.612
		c0.329,0.165,0.542,0.497,0.553,0.865s-0.183,0.712-0.502,0.896l-3.375,1.94c-0.379,0.218-0.565,0.667-0.463,1.118
		C27.886,15.916,28,16.951,28,18C28,25.72,21.72,32,14,32z"/>
</g>
<g>
	<path fill="#EBEBEB" d="M14,28C8.486,28,4,23.514,4,18S8.486,8,14,8s10,4.486,10,10S19.514,28,14,28z"/>
</g>
<g>
	<path fill="#505050" d="M16,13h-1c-0.553,0-1-0.448-1-1s0.447-1,1-1h1c0.553,0,1,0.448,1,1S16.553,13,16,13z"/>
</g>
<g>
	<path fill="#505050" d="M10,16H9c-0.553,0-1-0.448-1-1s0.447-1,1-1h1c0.553,0,1,0.448,1,1S10.553,16,10,16z"/>
</g>
<g>
	<path fill="#505050" d="M9,21H8c-0.553,0-1-0.448-1-1s0.447-1,1-1h1c0.553,0,1,0.448,1,1S9.553,21,9,21z"/>
</g>
<g>
	<path fill="#505050" d="M20,17h-1c-0.553,0-1-0.448-1-1s0.447-1,1-1h1c0.553,0,1,0.448,1,1S20.553,17,20,17z"/>
</g>
<g>
	<path fill="#505050" d="M19,22h-1c-0.553,0-1-0.448-1-1s0.447-1,1-1h1c0.553,0,1,0.448,1,1S19.553,22,19,22z"/>
</g>
<g>
	<path fill="#505050" d="M13,25h-1c-0.553,0-1-0.448-1-1s0.447-1,1-1h1c0.553,0,1,0.448,1,1S13.553,25,13,25z"/>
</g>
<g>
	<path fill="#505050" d="M15,19h-1c-0.553,0-1-0.448-1-1s0.447-1,1-1h1c0.553,0,1,0.448,1,1S15.553,19,15,19z"/>
</g>
</svg>
