<?xml version="1.0" encoding="utf-8"?>
<!-- Generator: Adobe Illustrator 21.0.0, SVG Export Plug-In . SVG Version: 6.00 Build 0)  -->
<svg version="1.1" id="flat" xmlns="http://www.w3.org/2000/svg" xmlns:xlink="http://www.w3.org/1999/xlink" x="0px" y="0px"
	 viewBox="0 0 32 32" enable-background="new 0 0 32 32" xml:space="preserve">
<g>
	<path fill="#F2C500" d="M7.433,32c-0.418,0-0.834-0.127-1.193-0.38c-0.656-0.462-0.984-1.24-0.855-2.033l1.228-7.543
		C6.764,21.11,6.46,20.148,5.8,19.47l-5.211-5.356c-0.546-0.56-0.73-1.369-0.481-2.111c0.249-0.742,0.884-1.276,1.657-1.394
		l6.979-1.069c0.991-0.152,1.838-0.785,2.264-1.694l3.112-6.647c0.345-0.738,1.065-1.196,1.88-1.196s1.535,0.458,1.881,1.196
		l3.111,6.648c0.426,0.909,1.272,1.542,2.264,1.694l6.979,1.069c0.773,0.118,1.408,0.652,1.657,1.394
		c0.249,0.742,0.064,1.551-0.481,2.112L26.2,19.47c-0.66,0.679-0.964,1.641-0.812,2.574l1.227,7.539
		c0.129,0.793-0.2,1.573-0.857,2.035c-0.657,0.463-1.503,0.507-2.203,0.116l-6.1-3.381c-0.912-0.504-2-0.504-2.91,0L8.44,31.737
		C8.124,31.913,7.777,32,7.433,32z"/>
</g>
<path fill="#EBEBEB" d="M22.439,14.658c-0.188-0.519-0.761-0.787-1.281-0.598L17,15.572V11c0-0.552-0.447-1-1-1s-1,0.448-1,1v4.572
	l-4.158-1.512c-0.521-0.188-1.093,0.079-1.281,0.598c-0.189,0.519,0.079,1.093,0.598,1.282l4.19,1.523l-3.13,3.912
	c-0.345,0.432-0.274,1.06,0.156,1.406c0.434,0.347,1.062,0.273,1.406-0.156L16,18.6l3.219,4.024C19.417,22.872,19.707,23,20.001,23
	c0.219,0,0.439-0.071,0.624-0.219c0.431-0.346,0.501-0.975,0.156-1.406l-3.13-3.912l4.19-1.523
	C22.36,15.751,22.629,15.177,22.439,14.658z"/>
</svg>
