<?xml version="1.0" encoding="utf-8"?>
<!-- Generator: Adobe Illustrator 21.0.0, SVG Export Plug-In . SVG Version: 6.00 Build 0)  -->
<svg version="1.1" id="flat" xmlns="http://www.w3.org/2000/svg" xmlns:xlink="http://www.w3.org/1999/xlink" x="0px" y="0px"
	 viewBox="0 0 32 32" enable-background="new 0 0 32 32" xml:space="preserve">
<g>
	<path fill="#8BC02F" d="M20.964,10.5h-9.928c-0.261,0-0.512-0.102-0.699-0.285C8.55,8.469,7.782,6.011,8.054,2.912
		c0.048-0.543,0.539-0.933,1.066-0.91c1.412,0.099,2.667,0.511,3.804,1.25c0.479-1.262,1.325-2.297,2.526-3.088
		c0.333-0.22,0.767-0.22,1.1,0c1.202,0.791,2.047,1.826,2.526,3.088c1.136-0.74,2.392-1.151,3.804-1.25
		c0.537-0.025,1.019,0.367,1.066,0.91c0.272,3.099-0.496,5.556-2.283,7.303C21.476,10.398,21.225,10.5,20.964,10.5z"/>
</g>
<g>
	<path fill="#E94B35" d="M16,32c-2.12,0-4.092-1.245-5.147-3.25l-3.744-7.119c-1.035-1.967-1.36-4.273-0.915-6.493
		C7.036,10.936,10.367,8,14.295,8h3.411c3.927,0,7.258,2.936,8.1,7.139c0.445,2.22,0.12,4.525-0.915,6.493l-3.744,7.119
		C20.092,30.755,18.12,32,16,32z"/>
</g>
<g>
	<path fill="#EBEBEB" d="M19,15c-0.552,0-1-0.448-1-1v-1c0-0.552,0.448-1,1-1s1,0.448,1,1v1C20,14.552,19.552,15,19,15z"/>
</g>
<g>
	<path fill="#EBEBEB" d="M13,15c-0.552,0-1-0.448-1-1v-1c0-0.552,0.448-1,1-1s1,0.448,1,1v1C14,14.552,13.552,15,13,15z"/>
</g>
<g>
	<path fill="#EBEBEB" d="M18,27c-0.552,0-1-0.448-1-1v-1c0-0.552,0.448-1,1-1s1,0.448,1,1v1C19,26.552,18.552,27,18,27z"/>
</g>
<g>
	<path fill="#EBEBEB" d="M14,27c-0.552,0-1-0.448-1-1v-1c0-0.552,0.448-1,1-1s1,0.448,1,1v1C15,26.552,14.552,27,14,27z"/>
</g>
<g>
	<path fill="#EBEBEB" d="M16,21c-0.552,0-1-0.448-1-1v-1c0-0.552,0.448-1,1-1s1,0.448,1,1v1C17,20.552,16.552,21,16,21z"/>
</g>
<g>
	<path fill="#EBEBEB" d="M21,21c-0.552,0-1-0.448-1-1v-1c0-0.552,0.448-1,1-1s1,0.448,1,1v1C22,20.552,21.552,21,21,21z"/>
</g>
<g>
	<path fill="#EBEBEB" d="M11,21c-0.552,0-1-0.448-1-1v-1c0-0.552,0.448-1,1-1s1,0.448,1,1v1C12,20.552,11.552,21,11,21z"/>
</g>
</svg>
