<?xml version="1.0" encoding="utf-8"?>
<!-- Generator: Adobe Illustrator 21.0.0, SVG Export Plug-In . SVG Version: 6.00 Build 0)  -->
<svg version="1.1" id="flat" xmlns="http://www.w3.org/2000/svg" xmlns:xlink="http://www.w3.org/1999/xlink" x="0px" y="0px"
	 viewBox="0 0 32 32" enable-background="new 0 0 32 32" xml:space="preserve">
<g>
	<path fill="#8BC02F" d="M30.28,6.94c-1.39,1.17-4.14,1.79-4.76,3.16c-0.84,1.84,1.42,5.38,0.34,6.96c-1.13,1.65-5.23,0.8-6.61,2.19
		c-1.39,1.38-0.53,5.48-2.18,6.6c-1.59,1.09-5.12-1.17-6.97-0.33c-1.37,0.62-1.99,3.37-3.16,4.76C9.03,31.43,11.41,32,13.86,32
		c2.21,0,4.48-0.46,6.64-1.38c2.16-0.91,4.23-2.28,6.04-4.08C32.15,20.92,33.51,12.82,30.28,6.94z M6.31,15.07
		c1.12-1.64,5.21-0.8,6.59-2.17c1.37-1.38,0.52-5.47,2.16-6.58c1.58-1.09,5.1,1.17,6.94,0.32c1.4-0.63,2.02-3.47,3.23-4.83
		C19.34-1.53,11.13-0.2,5.46,5.46c-5.66,5.67-6.99,13.88-3.65,19.77c1.36-1.21,4.2-1.83,4.83-3.23C7.49,20.17,5.23,16.66,6.31,15.07
		z"/>
</g>
<g>
	<path fill="#42A141" d="M25.52,10.1c0.62-1.37,3.37-1.99,4.76-3.16c-0.58-1.08-1.33-2.09-2.23-2.99c-0.85-0.85-1.8-1.57-2.82-2.14
		C24.02,3.17,23.4,6.01,22,6.64c-1.84,0.85-5.36-1.41-6.94-0.32c-1.64,1.11-0.79,5.2-2.16,6.58c-1.38,1.37-5.47,0.53-6.59,2.17
		c-1.08,1.59,1.18,5.1,0.33,6.93c-0.63,1.4-3.47,2.02-4.83,3.23c0.57,1.02,1.29,1.97,2.14,2.82c0.9,0.9,1.91,1.65,2.99,2.23
		c1.17-1.39,1.79-4.14,3.16-4.76c1.85-0.84,5.38,1.42,6.97,0.33c1.65-1.12,0.79-5.22,2.18-6.6c1.38-1.39,5.48-0.54,6.61-2.19
		C26.94,15.48,24.68,11.94,25.52,10.1z"/>
</g>
</svg>
