<?xml version="1.0" encoding="utf-8"?>
<!-- Generator: Adobe Illustrator 21.0.0, SVG Export Plug-In . SVG Version: 6.00 Build 0)  -->
<svg version="1.1" id="flat" xmlns="http://www.w3.org/2000/svg" xmlns:xlink="http://www.w3.org/1999/xlink" x="0px" y="0px"
	 viewBox="0 0 32 32" enable-background="new 0 0 32 32" xml:space="preserve">
<g>
	<path fill="#8BC02F" d="M12.851,32c-4.093,0-8.196-1.301-11.634-3.948c-0.712-0.548-1.153-1.372-1.21-2.262
		c-0.057-0.875,0.267-1.733,0.887-2.353L23.438,0.893c0.619-0.621,1.483-0.94,2.353-0.887c0.89,0.058,1.713,0.499,2.261,1.21
		c5.838,7.583,5.128,18.412-1.648,25.189C22.7,30.108,17.785,32,12.851,32z M1.601,24.145h0.01H1.601z"/>
</g>
<g>
	<path fill="#E94B35" d="M13.111,27.904c-3.895,0-7.823-1.478-10.84-4.429c-0.191-0.187-0.299-0.442-0.301-0.709
		s0.104-0.523,0.293-0.712l19.79-19.79c0.188-0.189,0.465-0.323,0.713-0.293c0.267,0.001,0.522,0.11,0.709,0.301
		c5.854,5.984,5.913,15.556,0.133,21.336C20.741,26.473,16.942,27.904,13.111,27.904z"/>
</g>
<g>
	<path d="M17,18c-0.256,0-0.512-0.098-0.707-0.293l-1-1c-0.391-0.391-0.391-1.023,0-1.414s1.023-0.391,1.414,0l1,1
		c0.391,0.391,0.391,1.023,0,1.414C17.512,17.902,17.256,18,17,18z"/>
</g>
<g>
	<path d="M21,12h-1c-0.553,0-1-0.448-1-1s0.447-1,1-1h1c0.553,0,1,0.448,1,1S21.553,12,21,12z"/>
</g>
<g>
	<path d="M11,22c-0.552,0-1-0.448-1-1v-1c0-0.552,0.448-1,1-1s1,0.448,1,1v1C12,21.552,11.552,22,11,22z"/>
</g>
</svg>
